<svg width="1148" height="472" viewBox="0 0 1148 472" fill="none" xmlns="http://www.w3.org/2000/svg">
<path d="M125.553 284H80.4467C78.8835 283.996 77.3486 283.583 75.9946 282.802C74.6406 282.021 73.5147 280.899 72.7289 279.548L50.1876 240.452C49.4095 239.097 49 237.562 49 236C49 234.438 49.4095 232.903 50.1876 231.548L72.7289 192.488C73.5102 191.13 74.6341 190.001 75.9884 189.214C77.3427 188.426 78.88 188.008 80.4467 188H125.553C127.117 188 128.654 188.412 130.008 189.193C131.363 189.975 132.488 191.099 133.271 192.452L155.812 231.548C156.591 232.903 157 234.438 157 236C157 237.562 156.591 239.097 155.812 240.452L133.259 279.512C132.484 280.873 131.364 282.005 130.01 282.793C128.657 283.581 127.119 283.998 125.553 284ZM80.4467 193.772C79.8902 193.774 79.3438 193.921 78.8617 194.199C78.3795 194.476 77.9784 194.875 77.6981 195.356L55.1448 234.416C54.8679 234.898 54.7221 235.444 54.7221 236C54.7221 236.556 54.8679 237.102 55.1448 237.584L77.6981 276.644C77.9784 277.125 78.3795 277.524 78.8617 277.801C79.3438 278.079 79.8902 278.226 80.4467 278.228H125.553C126.11 278.226 126.656 278.079 127.138 277.801C127.62 277.524 128.022 277.125 128.302 276.644L150.855 237.584C151.132 237.102 151.278 236.556 151.278 236C151.278 235.444 151.132 234.898 150.855 234.416L128.302 195.356C128.022 194.875 127.62 194.476 127.138 194.199C126.656 193.921 126.11 193.774 125.553 193.772H80.4467Z" fill="black"/>
<path d="M90.0586 240H82.4426C82.2399 240 82.0906 239.957 81.9946 239.872C81.9092 239.776 81.8666 239.627 81.8666 239.424V236.672C81.8666 236.053 81.9252 235.547 82.0426 235.152C82.1706 234.747 82.3466 234.416 82.5706 234.16C82.7946 233.904 83.0612 233.701 83.3706 233.552C83.6799 233.403 84.0159 233.275 84.3786 233.168L86.5226 232.496C86.6932 232.453 86.8052 232.389 86.8586 232.304C86.9226 232.219 86.9546 232.091 86.9546 231.92C86.9546 231.76 86.9226 231.653 86.8586 231.6C86.7946 231.536 86.6826 231.504 86.5226 231.504H83.0506C82.8479 231.504 82.6986 231.461 82.6026 231.376C82.5172 231.28 82.4746 231.131 82.4746 230.928V229.056C82.4746 228.853 82.5172 228.709 82.6026 228.624C82.6986 228.528 82.8479 228.48 83.0506 228.48H87.7706C88.6772 228.48 89.3706 228.709 89.8506 229.168C90.3412 229.616 90.5866 230.272 90.5866 231.136V232.64C90.5866 233.44 90.3626 234.053 89.9146 234.48C89.4666 234.907 88.8586 235.237 88.0906 235.472L85.9146 236.16C85.7546 236.203 85.6426 236.251 85.5786 236.304C85.5252 236.357 85.4986 236.469 85.4986 236.64V236.976H90.0586C90.2612 236.976 90.4052 237.024 90.4906 237.12C90.5866 237.205 90.6346 237.349 90.6346 237.552V239.424C90.6346 239.627 90.5866 239.776 90.4906 239.872C90.4052 239.957 90.2612 240 90.0586 240ZM102.149 236.976C102.149 237.467 102.08 237.915 101.941 238.32C101.803 238.715 101.552 239.056 101.189 239.344C100.827 239.621 100.325 239.84 99.6853 240C99.056 240.16 98.2506 240.24 97.2693 240.24C96.288 240.24 95.4773 240.16 94.8373 240C94.208 239.84 93.712 239.621 93.3493 239.344C92.9866 239.056 92.7306 238.715 92.5813 238.32C92.4426 237.915 92.3733 237.467 92.3733 236.976V231.52C92.3733 231.029 92.4426 230.587 92.5813 230.192C92.7306 229.787 92.9866 229.44 93.3493 229.152C93.712 228.864 94.208 228.64 94.8373 228.48C95.4773 228.32 96.288 228.24 97.2693 228.24C98.2506 228.24 99.056 228.32 99.6853 228.48C100.325 228.64 100.827 228.864 101.189 229.152C101.552 229.44 101.803 229.787 101.941 230.192C102.08 230.587 102.149 231.029 102.149 231.52V236.976ZM95.9893 236.4C95.9893 236.613 96.064 236.795 96.2133 236.944C96.3733 237.083 96.7253 237.152 97.2693 237.152C97.8133 237.152 98.16 237.083 98.3093 236.944C98.4693 236.795 98.5493 236.613 98.5493 236.4V232.096C98.5493 231.893 98.4693 231.723 98.3093 231.584C98.16 231.435 97.8133 231.36 97.2693 231.36C96.7253 231.36 96.3733 231.435 96.2133 231.584C96.064 231.723 95.9893 231.893 95.9893 232.096V236.4ZM111.486 240H104.414C104.212 240 104.062 239.957 103.966 239.872C103.881 239.776 103.838 239.627 103.838 239.424V237.488C103.838 237.285 103.881 237.141 103.966 237.056C104.062 236.96 104.212 236.912 104.414 236.912H106.206V231.568H104.734C104.532 231.568 104.382 231.525 104.286 231.44C104.201 231.344 104.158 231.195 104.158 230.992V229.056C104.158 228.853 104.201 228.709 104.286 228.624C104.382 228.528 104.532 228.48 104.734 228.48H109.374C109.577 228.48 109.721 228.528 109.806 228.624C109.902 228.709 109.95 228.853 109.95 229.056V236.912H111.486C111.689 236.912 111.833 236.96 111.918 237.056C112.014 237.141 112.062 237.285 112.062 237.488V239.424C112.062 239.627 112.014 239.776 111.918 239.872C111.833 239.957 111.689 240 111.486 240ZM118.408 240.24C117.426 240.24 116.621 240.16 115.992 240C115.373 239.851 114.888 239.637 114.536 239.36C114.184 239.072 113.938 238.731 113.8 238.336C113.672 237.941 113.608 237.499 113.608 237.008V231.76C113.608 230.789 113.885 230 114.44 229.392C115.005 228.784 116.04 228.48 117.544 228.48H121.224C121.426 228.48 121.57 228.528 121.656 228.624C121.752 228.709 121.8 228.853 121.8 229.056V230.944C121.8 231.147 121.752 231.296 121.656 231.392C121.57 231.477 121.426 231.52 121.224 231.52H118.232C117.837 231.52 117.57 231.584 117.432 231.712C117.293 231.829 117.224 232.085 117.224 232.48V232.832C117.48 232.757 117.773 232.699 118.104 232.656C118.445 232.613 118.829 232.592 119.256 232.592C120.696 232.592 121.682 232.837 122.216 233.328C122.749 233.808 123.016 234.523 123.016 235.472V237.008C123.016 237.499 122.946 237.941 122.808 238.336C122.68 238.731 122.44 239.072 122.088 239.36C121.746 239.637 121.277 239.851 120.68 240C120.082 240.16 119.325 240.24 118.408 240.24ZM117.224 235.808V236.752C117.224 236.923 117.288 237.067 117.416 237.184C117.544 237.291 117.837 237.344 118.296 237.344C118.776 237.344 119.08 237.291 119.208 237.184C119.336 237.067 119.4 236.923 119.4 236.752V235.808C119.4 235.648 119.336 235.515 119.208 235.408C119.08 235.291 118.776 235.232 118.296 235.232C117.837 235.232 117.544 235.291 117.416 235.408C117.288 235.515 117.224 235.648 117.224 235.808Z" fill="black"/>
<path d="M283.553 284H238.447C236.884 283.996 235.349 283.583 233.995 282.802C232.641 282.021 231.515 280.899 230.729 279.548L208.188 240.452C207.409 239.097 207 237.562 207 236C207 234.438 207.409 232.903 208.188 231.548L230.729 192.488C231.51 191.13 232.634 190.001 233.988 189.214C235.343 188.426 236.88 188.008 238.447 188H283.553C285.117 188 286.654 188.412 288.008 189.193C289.363 189.975 290.488 191.099 291.271 192.452L313.812 231.548C314.591 232.903 315 234.438 315 236C315 237.562 314.591 239.097 313.812 240.452L291.259 279.512C290.484 280.873 289.364 282.005 288.01 282.793C286.657 283.581 285.119 283.998 283.553 284ZM238.447 193.772C237.89 193.774 237.344 193.921 236.862 194.199C236.38 194.476 235.978 194.875 235.698 195.356L213.145 234.416C212.868 234.898 212.722 235.444 212.722 236C212.722 236.556 212.868 237.102 213.145 237.584L235.698 276.644C235.978 277.125 236.38 277.524 236.862 277.801C237.344 278.079 237.89 278.226 238.447 278.228H283.553C284.11 278.226 284.656 278.079 285.138 277.801C285.62 277.524 286.022 277.125 286.302 276.644L308.855 237.584C309.132 237.102 309.278 236.556 309.278 236C309.278 235.444 309.132 234.898 308.855 234.416L286.302 195.356C286.022 194.875 285.62 194.476 285.138 194.199C284.656 193.921 284.11 193.774 283.553 193.772H238.447Z" fill="black"/>
<path d="M248.059 240H240.443C240.24 240 240.091 239.957 239.995 239.872C239.909 239.776 239.867 239.627 239.867 239.424V236.672C239.867 236.053 239.925 235.547 240.043 235.152C240.171 234.747 240.347 234.416 240.571 234.16C240.795 233.904 241.061 233.701 241.371 233.552C241.68 233.403 242.016 233.275 242.379 233.168L244.523 232.496C244.693 232.453 244.805 232.389 244.859 232.304C244.923 232.219 244.955 232.091 244.955 231.92C244.955 231.76 244.923 231.653 244.859 231.6C244.795 231.536 244.683 231.504 244.523 231.504H241.051C240.848 231.504 240.699 231.461 240.603 231.376C240.517 231.28 240.475 231.131 240.475 230.928V229.056C240.475 228.853 240.517 228.709 240.603 228.624C240.699 228.528 240.848 228.48 241.051 228.48H245.771C246.677 228.48 247.371 228.709 247.851 229.168C248.341 229.616 248.587 230.272 248.587 231.136V232.64C248.587 233.44 248.363 234.053 247.915 234.48C247.467 234.907 246.859 235.237 246.091 235.472L243.915 236.16C243.755 236.203 243.643 236.251 243.579 236.304C243.525 236.357 243.499 236.469 243.499 236.64V236.976H248.059C248.261 236.976 248.405 237.024 248.491 237.12C248.587 237.205 248.635 237.349 248.635 237.552V239.424C248.635 239.627 248.587 239.776 248.491 239.872C248.405 239.957 248.261 240 248.059 240ZM260.149 236.976C260.149 237.467 260.08 237.915 259.941 238.32C259.803 238.715 259.552 239.056 259.189 239.344C258.827 239.621 258.325 239.84 257.685 240C257.056 240.16 256.251 240.24 255.269 240.24C254.288 240.24 253.477 240.16 252.837 240C252.208 239.84 251.712 239.621 251.349 239.344C250.987 239.056 250.731 238.715 250.581 238.32C250.443 237.915 250.373 237.467 250.373 236.976V231.52C250.373 231.029 250.443 230.587 250.581 230.192C250.731 229.787 250.987 229.44 251.349 229.152C251.712 228.864 252.208 228.64 252.837 228.48C253.477 228.32 254.288 228.24 255.269 228.24C256.251 228.24 257.056 228.32 257.685 228.48C258.325 228.64 258.827 228.864 259.189 229.152C259.552 229.44 259.803 229.787 259.941 230.192C260.08 230.587 260.149 231.029 260.149 231.52V236.976ZM253.989 236.4C253.989 236.613 254.064 236.795 254.213 236.944C254.373 237.083 254.725 237.152 255.269 237.152C255.813 237.152 256.16 237.083 256.309 236.944C256.469 236.795 256.549 236.613 256.549 236.4V232.096C256.549 231.893 256.469 231.723 256.309 231.584C256.16 231.435 255.813 231.36 255.269 231.36C254.725 231.36 254.373 231.435 254.213 231.584C254.064 231.723 253.989 231.893 253.989 232.096V236.4ZM269.486 240H262.414C262.212 240 262.062 239.957 261.966 239.872C261.881 239.776 261.838 239.627 261.838 239.424V237.488C261.838 237.285 261.881 237.141 261.966 237.056C262.062 236.96 262.212 236.912 262.414 236.912H264.206V231.568H262.734C262.532 231.568 262.382 231.525 262.286 231.44C262.201 231.344 262.158 231.195 262.158 230.992V229.056C262.158 228.853 262.201 228.709 262.286 228.624C262.382 228.528 262.532 228.48 262.734 228.48H267.374C267.577 228.48 267.721 228.528 267.806 228.624C267.902 228.709 267.95 228.853 267.95 229.056V236.912H269.486C269.689 236.912 269.833 236.96 269.918 237.056C270.014 237.141 270.062 237.285 270.062 237.488V239.424C270.062 239.627 270.014 239.776 269.918 239.872C269.833 239.957 269.689 240 269.486 240ZM276.904 240H273.224C273.021 240 272.872 239.957 272.776 239.872C272.69 239.776 272.648 239.627 272.648 239.424V237.536C272.648 237.333 272.69 237.189 272.776 237.104C272.872 237.008 273.021 236.96 273.224 236.96H276.216C276.61 236.96 276.877 236.901 277.016 236.784C277.154 236.656 277.224 236.395 277.224 236V235.648C276.968 235.723 276.669 235.781 276.328 235.824C275.997 235.867 275.618 235.888 275.192 235.888C273.752 235.888 272.765 235.648 272.232 235.168C271.698 234.677 271.432 233.957 271.432 233.008V231.472C271.432 230.981 271.496 230.539 271.624 230.144C271.762 229.749 272.002 229.413 272.344 229.136C272.696 228.848 273.17 228.629 273.768 228.48C274.365 228.32 275.122 228.24 276.04 228.24C277.021 228.24 277.821 228.32 278.44 228.48C279.069 228.629 279.56 228.848 279.912 229.136C280.264 229.413 280.504 229.749 280.632 230.144C280.77 230.539 280.84 230.981 280.84 231.472V236.72C280.84 237.691 280.557 238.48 279.992 239.088C279.437 239.696 278.408 240 276.904 240ZM277.224 232.672V231.728C277.224 231.557 277.16 231.419 277.032 231.312C276.904 231.195 276.61 231.136 276.152 231.136C275.672 231.136 275.368 231.195 275.24 231.312C275.112 231.419 275.048 231.557 275.048 231.728V232.672C275.048 232.832 275.112 232.971 275.24 233.088C275.368 233.195 275.672 233.248 276.152 233.248C276.61 233.248 276.904 233.195 277.032 233.088C277.16 232.971 277.224 232.832 277.224 232.672Z" fill="black"/>
<line x1="155" y1="235.5" x2="212" y2="235.5" stroke="black" stroke-width="5"/>
<path d="M443.553 284H398.447C396.884 283.996 395.349 283.583 393.995 282.802C392.641 282.021 391.515 280.899 390.729 279.548L368.188 240.452C367.409 239.097 367 237.562 367 236C367 234.438 367.409 232.903 368.188 231.548L390.729 192.488C391.51 191.13 392.634 190.001 393.988 189.214C395.343 188.426 396.88 188.008 398.447 188H443.553C445.117 188 446.654 188.412 448.008 189.193C449.363 189.975 450.488 191.099 451.271 192.452L473.812 231.548C474.591 232.903 475 234.438 475 236C475 237.562 474.591 239.097 473.812 240.452L451.259 279.512C450.484 280.873 449.364 282.005 448.01 282.793C446.657 283.581 445.119 283.998 443.553 284ZM398.447 193.772C397.89 193.774 397.344 193.921 396.862 194.199C396.38 194.476 395.978 194.875 395.698 195.356L373.145 234.416C372.868 234.898 372.722 235.444 372.722 236C372.722 236.556 372.868 237.102 373.145 237.584L395.698 276.644C395.978 277.125 396.38 277.524 396.862 277.801C397.344 278.079 397.89 278.226 398.447 278.228H443.553C444.11 278.226 444.656 278.079 445.138 277.801C445.62 277.524 446.022 277.125 446.302 276.644L468.855 237.584C469.132 237.102 469.278 236.556 469.278 236C469.278 235.444 469.132 234.898 468.855 234.416L446.302 195.356C446.022 194.875 445.62 194.476 445.138 194.199C444.656 193.921 444.11 193.774 443.553 193.772H398.447Z" fill="black"/>
<path d="M407.488 240H399.872C399.67 240 399.52 239.957 399.424 239.872C399.339 239.776 399.296 239.627 399.296 239.424V236.672C399.296 236.053 399.355 235.547 399.472 235.152C399.6 234.747 399.776 234.416 400 234.16C400.224 233.904 400.491 233.701 400.8 233.552C401.11 233.403 401.446 233.275 401.808 233.168L403.952 232.496C404.123 232.453 404.235 232.389 404.288 232.304C404.352 232.219 404.384 232.091 404.384 231.92C404.384 231.76 404.352 231.653 404.288 231.6C404.224 231.536 404.112 231.504 403.952 231.504H400.48C400.278 231.504 400.128 231.461 400.032 231.376C399.947 231.28 399.904 231.131 399.904 230.928V229.056C399.904 228.853 399.947 228.709 400.032 228.624C400.128 228.528 400.278 228.48 400.48 228.48H405.2C406.107 228.48 406.8 228.709 407.28 229.168C407.771 229.616 408.016 230.272 408.016 231.136V232.64C408.016 233.44 407.792 234.053 407.344 234.48C406.896 234.907 406.288 235.237 405.52 235.472L403.344 236.16C403.184 236.203 403.072 236.251 403.008 236.304C402.955 236.357 402.928 236.469 402.928 236.64V236.976H407.488C407.691 236.976 407.835 237.024 407.92 237.12C408.016 237.205 408.064 237.349 408.064 237.552V239.424C408.064 239.627 408.016 239.776 407.92 239.872C407.835 239.957 407.691 240 407.488 240ZM419.579 236.976C419.579 237.467 419.51 237.915 419.371 238.32C419.232 238.715 418.982 239.056 418.619 239.344C418.256 239.621 417.755 239.84 417.115 240C416.486 240.16 415.68 240.24 414.699 240.24C413.718 240.24 412.907 240.16 412.267 240C411.638 239.84 411.142 239.621 410.779 239.344C410.416 239.056 410.16 238.715 410.011 238.32C409.872 237.915 409.803 237.467 409.803 236.976V231.52C409.803 231.029 409.872 230.587 410.011 230.192C410.16 229.787 410.416 229.44 410.779 229.152C411.142 228.864 411.638 228.64 412.267 228.48C412.907 228.32 413.718 228.24 414.699 228.24C415.68 228.24 416.486 228.32 417.115 228.48C417.755 228.64 418.256 228.864 418.619 229.152C418.982 229.44 419.232 229.787 419.371 230.192C419.51 230.587 419.579 231.029 419.579 231.52V236.976ZM413.419 236.4C413.419 236.613 413.494 236.795 413.643 236.944C413.803 237.083 414.155 237.152 414.699 237.152C415.243 237.152 415.59 237.083 415.739 236.944C415.899 236.795 415.979 236.613 415.979 236.4V232.096C415.979 231.893 415.899 231.723 415.739 231.584C415.59 231.435 415.243 231.36 414.699 231.36C414.155 231.36 413.803 231.435 413.643 231.584C413.494 231.723 413.419 231.893 413.419 232.096V236.4ZM429.332 240H421.716C421.513 240 421.364 239.957 421.268 239.872C421.183 239.776 421.14 239.627 421.14 239.424V236.672C421.14 236.053 421.199 235.547 421.316 235.152C421.444 234.747 421.62 234.416 421.844 234.16C422.068 233.904 422.335 233.701 422.644 233.552C422.953 233.403 423.289 233.275 423.652 233.168L425.796 232.496C425.967 232.453 426.079 232.389 426.132 232.304C426.196 232.219 426.228 232.091 426.228 231.92C426.228 231.76 426.196 231.653 426.132 231.6C426.068 231.536 425.956 231.504 425.796 231.504H422.324C422.121 231.504 421.972 231.461 421.876 231.376C421.791 231.28 421.748 231.131 421.748 230.928V229.056C421.748 228.853 421.791 228.709 421.876 228.624C421.972 228.528 422.121 228.48 422.324 228.48H427.044C427.951 228.48 428.644 228.709 429.124 229.168C429.615 229.616 429.86 230.272 429.86 231.136V232.64C429.86 233.44 429.636 234.053 429.188 234.48C428.74 234.907 428.132 235.237 427.364 235.472L425.188 236.16C425.028 236.203 424.916 236.251 424.852 236.304C424.799 236.357 424.772 236.469 424.772 236.64V236.976H429.332C429.535 236.976 429.679 237.024 429.764 237.12C429.86 237.205 429.908 237.349 429.908 237.552V239.424C429.908 239.627 429.86 239.776 429.764 239.872C429.679 239.957 429.535 240 429.332 240ZM441.423 236.976C441.423 237.467 441.353 237.915 441.215 238.32C441.076 238.715 440.825 239.056 440.463 239.344C440.1 239.621 439.599 239.84 438.959 240C438.329 240.16 437.524 240.24 436.543 240.24C435.561 240.24 434.751 240.16 434.111 240C433.481 239.84 432.985 239.621 432.623 239.344C432.26 239.056 432.004 238.715 431.855 238.32C431.716 237.915 431.647 237.467 431.647 236.976V231.52C431.647 231.029 431.716 230.587 431.855 230.192C432.004 229.787 432.26 229.44 432.623 229.152C432.985 228.864 433.481 228.64 434.111 228.48C434.751 228.32 435.561 228.24 436.543 228.24C437.524 228.24 438.329 228.32 438.959 228.48C439.599 228.64 440.1 228.864 440.463 229.152C440.825 229.44 441.076 229.787 441.215 230.192C441.353 230.587 441.423 231.029 441.423 231.52V236.976ZM435.263 236.4C435.263 236.613 435.337 236.795 435.487 236.944C435.647 237.083 435.999 237.152 436.543 237.152C437.087 237.152 437.433 237.083 437.583 236.944C437.743 236.795 437.823 236.613 437.823 236.4V232.096C437.823 231.893 437.743 231.723 437.583 231.584C437.433 231.435 437.087 231.36 436.543 231.36C435.999 231.36 435.647 231.435 435.487 231.584C435.337 231.723 435.263 231.893 435.263 232.096V236.4Z" fill="black"/>
<line x1="315" y1="235.5" x2="372" y2="235.5" stroke="black" stroke-width="5"/>
<path d="M508 366C509.381 366 510.5 364.881 510.5 363.5C510.5 362.119 509.381 361 508 361V366ZM228 366H508V361H228V366Z" fill="black"/>
<path d="M508 366C509.381 366 510.5 364.881 510.5 363.5C510.5 362.119 509.381 361 508 361V366ZM228 366H508V361H228V366Z" fill="black"/>
<path d="M646 108.5C647.381 108.5 648.5 107.381 648.5 106C648.5 104.619 647.381 103.5 646 103.5V108.5ZM549 108.5H646V103.5H549V108.5Z" fill="black"/>
<path d="M1067.55 284H1022.45C1020.88 283.996 1019.35 283.583 1017.99 282.802C1016.64 282.021 1015.51 280.899 1014.73 279.548L992.188 240.452C991.409 239.097 991 237.562 991 236C991 234.438 991.409 232.903 992.188 231.548L1014.73 192.488C1015.51 191.13 1016.63 190.001 1017.99 189.214C1019.34 188.426 1020.88 188.008 1022.45 188H1067.55C1069.12 188 1070.65 188.412 1072.01 189.193C1073.36 189.975 1074.49 191.099 1075.27 192.452L1097.81 231.548C1098.59 232.903 1099 234.438 1099 236C1099 237.562 1098.59 239.097 1097.81 240.452L1075.26 279.512C1074.48 280.873 1073.36 282.005 1072.01 282.793C1070.66 283.581 1069.12 283.998 1067.55 284ZM1022.45 193.772C1021.89 193.774 1021.34 193.921 1020.86 194.199C1020.38 194.476 1019.98 194.875 1019.7 195.356L997.145 234.416C996.868 234.898 996.722 235.444 996.722 236C996.722 236.556 996.868 237.102 997.145 237.584L1019.7 276.644C1019.98 277.125 1020.38 277.524 1020.86 277.801C1021.34 278.079 1021.89 278.226 1022.45 278.228H1067.55C1068.11 278.226 1068.66 278.079 1069.14 277.801C1069.62 277.524 1070.02 277.125 1070.3 276.644L1092.86 237.584C1093.13 237.102 1093.28 236.556 1093.28 236C1093.28 235.444 1093.13 234.898 1092.86 234.416L1070.3 195.356C1070.02 194.875 1069.62 194.476 1069.14 194.199C1068.66 193.921 1068.11 193.774 1067.55 193.772H1022.45Z" fill="black"/>
<path d="M1031.67 240H1024.05C1023.85 240 1023.7 239.957 1023.6 239.872C1023.52 239.776 1023.48 239.627 1023.48 239.424V236.672C1023.48 236.053 1023.53 235.547 1023.65 235.152C1023.78 234.747 1023.96 234.416 1024.18 234.16C1024.4 233.904 1024.67 233.701 1024.98 233.552C1025.29 233.403 1025.63 233.275 1025.99 233.168L1028.13 232.496C1028.3 232.453 1028.41 232.389 1028.47 232.304C1028.53 232.219 1028.56 232.091 1028.56 231.92C1028.56 231.76 1028.53 231.653 1028.47 231.6C1028.4 231.536 1028.29 231.504 1028.13 231.504H1024.66C1024.46 231.504 1024.31 231.461 1024.21 231.376C1024.13 231.28 1024.08 231.131 1024.08 230.928V229.056C1024.08 228.853 1024.13 228.709 1024.21 228.624C1024.31 228.528 1024.46 228.48 1024.66 228.48H1029.38C1030.29 228.48 1030.98 228.709 1031.46 229.168C1031.95 229.616 1032.2 230.272 1032.2 231.136V232.64C1032.2 233.44 1031.97 234.053 1031.52 234.48C1031.08 234.907 1030.47 235.237 1029.7 235.472L1027.52 236.16C1027.36 236.203 1027.25 236.251 1027.19 236.304C1027.13 236.357 1027.11 236.469 1027.11 236.64V236.976H1031.67C1031.87 236.976 1032.01 237.024 1032.1 237.12C1032.2 237.205 1032.24 237.349 1032.24 237.552V239.424C1032.24 239.627 1032.2 239.776 1032.1 239.872C1032.01 239.957 1031.87 240 1031.67 240ZM1043.76 236.976C1043.76 237.467 1043.69 237.915 1043.55 238.32C1043.41 238.715 1043.16 239.056 1042.8 239.344C1042.44 239.621 1041.93 239.84 1041.29 240C1040.67 240.16 1039.86 240.24 1038.88 240.24C1037.9 240.24 1037.09 240.16 1036.45 240C1035.82 239.84 1035.32 239.621 1034.96 239.344C1034.6 239.056 1034.34 238.715 1034.19 238.32C1034.05 237.915 1033.98 237.467 1033.98 236.976V231.52C1033.98 231.029 1034.05 230.587 1034.19 230.192C1034.34 229.787 1034.6 229.44 1034.96 229.152C1035.32 228.864 1035.82 228.64 1036.45 228.48C1037.09 228.32 1037.9 228.24 1038.88 228.24C1039.86 228.24 1040.67 228.32 1041.29 228.48C1041.93 228.64 1042.44 228.864 1042.8 229.152C1043.16 229.44 1043.41 229.787 1043.55 230.192C1043.69 230.587 1043.76 231.029 1043.76 231.52V236.976ZM1037.6 236.4C1037.6 236.613 1037.67 236.795 1037.82 236.944C1037.98 237.083 1038.33 237.152 1038.88 237.152C1039.42 237.152 1039.77 237.083 1039.92 236.944C1040.08 236.795 1040.16 236.613 1040.16 236.4V232.096C1040.16 231.893 1040.08 231.723 1039.92 231.584C1039.77 231.435 1039.42 231.36 1038.88 231.36C1038.33 231.36 1037.98 231.435 1037.82 231.584C1037.67 231.723 1037.6 231.893 1037.6 232.096V236.4ZM1053.51 240H1045.9C1045.69 240 1045.54 239.957 1045.45 239.872C1045.36 239.776 1045.32 239.627 1045.32 239.424V236.672C1045.32 236.053 1045.38 235.547 1045.5 235.152C1045.62 234.747 1045.8 234.416 1046.02 234.16C1046.25 233.904 1046.51 233.701 1046.82 233.552C1047.13 233.403 1047.47 233.275 1047.83 233.168L1049.98 232.496C1050.15 232.453 1050.26 232.389 1050.31 232.304C1050.38 232.219 1050.41 232.091 1050.41 231.92C1050.41 231.76 1050.38 231.653 1050.31 231.6C1050.25 231.536 1050.14 231.504 1049.98 231.504H1046.5C1046.3 231.504 1046.15 231.461 1046.06 231.376C1045.97 231.28 1045.93 231.131 1045.93 230.928V229.056C1045.93 228.853 1045.97 228.709 1046.06 228.624C1046.15 228.528 1046.3 228.48 1046.5 228.48H1051.22C1052.13 228.48 1052.82 228.709 1053.3 229.168C1053.79 229.616 1054.04 230.272 1054.04 231.136V232.64C1054.04 233.44 1053.82 234.053 1053.37 234.48C1052.92 234.907 1052.31 235.237 1051.54 235.472L1049.37 236.16C1049.21 236.203 1049.1 236.251 1049.03 236.304C1048.98 236.357 1048.95 236.469 1048.95 236.64V236.976H1053.51C1053.71 236.976 1053.86 237.024 1053.94 237.12C1054.04 237.205 1054.09 237.349 1054.09 237.552V239.424C1054.09 239.627 1054.04 239.776 1053.94 239.872C1053.86 239.957 1053.71 240 1053.51 240ZM1061.44 237.328H1058.74C1057.71 237.328 1056.96 237.115 1056.5 236.688C1056.05 236.251 1055.83 235.579 1055.83 234.672V229.056C1055.83 228.853 1055.87 228.709 1055.96 228.624C1056.05 228.528 1056.2 228.48 1056.4 228.48H1058.88C1059.09 228.48 1059.23 228.528 1059.32 228.624C1059.41 228.709 1059.46 228.853 1059.46 229.056V233.44C1059.46 233.611 1059.5 233.744 1059.59 233.84C1059.68 233.936 1059.81 233.984 1059.96 233.984H1061.44V229.056C1061.44 228.853 1061.49 228.709 1061.57 228.624C1061.67 228.528 1061.82 228.48 1062.02 228.48H1064.48C1064.69 228.48 1064.83 228.528 1064.92 228.624C1065.01 228.709 1065.06 228.853 1065.06 229.056V239.424C1065.06 239.627 1065.01 239.776 1064.92 239.872C1064.83 239.957 1064.69 240 1064.48 240H1062.02C1061.82 240 1061.67 239.957 1061.57 239.872C1061.49 239.776 1061.44 239.627 1061.44 239.424V237.328Z" fill="black"/>
<line x1="939" y1="235.5" x2="996" y2="235.5" stroke="black" stroke-width="5"/>
<path d="M913.553 284H868.447C866.884 283.996 865.349 283.583 863.995 282.802C862.641 282.021 861.515 280.899 860.729 279.548L838.188 240.452C837.409 239.097 837 237.562 837 236C837 234.438 837.409 232.903 838.188 231.548L860.729 192.488C861.51 191.13 862.634 190.001 863.988 189.214C865.343 188.426 866.88 188.008 868.447 188H913.553C915.117 188 916.654 188.412 918.008 189.193C919.363 189.975 920.488 191.099 921.271 192.452L943.812 231.548C944.591 232.903 945 234.438 945 236C945 237.562 944.591 239.097 943.812 240.452L921.259 279.512C920.484 280.873 919.364 282.005 918.01 282.793C916.657 283.581 915.119 283.998 913.553 284ZM868.447 193.772C867.89 193.774 867.344 193.921 866.862 194.199C866.38 194.476 865.978 194.875 865.698 195.356L843.145 234.416C842.868 234.898 842.722 235.444 842.722 236C842.722 236.556 842.868 237.102 843.145 237.584L865.698 276.644C865.978 277.125 866.38 277.524 866.862 277.801C867.344 278.079 867.89 278.226 868.447 278.228H913.553C914.11 278.226 914.656 278.079 915.138 277.801C915.62 277.524 916.022 277.125 916.302 276.644L938.855 237.584C939.132 237.102 939.278 236.556 939.278 236C939.278 235.444 939.132 234.898 938.855 234.416L916.302 195.356C916.022 194.875 915.62 194.476 915.138 194.199C914.656 193.921 914.11 193.774 913.553 193.772H868.447Z" fill="black"/>
<path d="M878.207 240H870.591C870.388 240 870.239 239.957 870.143 239.872C870.058 239.776 870.015 239.627 870.015 239.424V236.672C870.015 236.053 870.074 235.547 870.191 235.152C870.319 234.747 870.495 234.416 870.719 234.16C870.943 233.904 871.21 233.701 871.519 233.552C871.828 233.403 872.164 233.275 872.527 233.168L874.671 232.496C874.842 232.453 874.954 232.389 875.007 232.304C875.071 232.219 875.103 232.091 875.103 231.92C875.103 231.76 875.071 231.653 875.007 231.6C874.943 231.536 874.831 231.504 874.671 231.504H871.199C870.996 231.504 870.847 231.461 870.751 231.376C870.666 231.28 870.623 231.131 870.623 230.928V229.056C870.623 228.853 870.666 228.709 870.751 228.624C870.847 228.528 870.996 228.48 871.199 228.48H875.919C876.826 228.48 877.519 228.709 877.999 229.168C878.49 229.616 878.735 230.272 878.735 231.136V232.64C878.735 233.44 878.511 234.053 878.063 234.48C877.615 234.907 877.007 235.237 876.239 235.472L874.063 236.16C873.903 236.203 873.791 236.251 873.727 236.304C873.674 236.357 873.647 236.469 873.647 236.64V236.976H878.207C878.41 236.976 878.554 237.024 878.639 237.12C878.735 237.205 878.783 237.349 878.783 237.552V239.424C878.783 239.627 878.735 239.776 878.639 239.872C878.554 239.957 878.41 240 878.207 240ZM890.298 236.976C890.298 237.467 890.228 237.915 890.09 238.32C889.951 238.715 889.7 239.056 889.338 239.344C888.975 239.621 888.474 239.84 887.834 240C887.204 240.16 886.399 240.24 885.418 240.24C884.436 240.24 883.626 240.16 882.986 240C882.356 239.84 881.86 239.621 881.498 239.344C881.135 239.056 880.879 238.715 880.73 238.32C880.591 237.915 880.522 237.467 880.522 236.976V231.52C880.522 231.029 880.591 230.587 880.73 230.192C880.879 229.787 881.135 229.44 881.498 229.152C881.86 228.864 882.356 228.64 882.986 228.48C883.626 228.32 884.436 228.24 885.418 228.24C886.399 228.24 887.204 228.32 887.834 228.48C888.474 228.64 888.975 228.864 889.338 229.152C889.7 229.44 889.951 229.787 890.09 230.192C890.228 230.587 890.298 231.029 890.298 231.52V236.976ZM884.138 236.4C884.138 236.613 884.212 236.795 884.362 236.944C884.522 237.083 884.874 237.152 885.418 237.152C885.962 237.152 886.308 237.083 886.458 236.944C886.618 236.795 886.698 236.613 886.698 236.4V232.096C886.698 231.893 886.618 231.723 886.458 231.584C886.308 231.435 885.962 231.36 885.418 231.36C884.874 231.36 884.522 231.435 884.362 231.584C884.212 231.723 884.138 231.893 884.138 232.096V236.4ZM900.051 240H892.435C892.232 240 892.083 239.957 891.987 239.872C891.901 239.776 891.859 239.627 891.859 239.424V236.672C891.859 236.053 891.917 235.547 892.035 235.152C892.163 234.747 892.339 234.416 892.563 234.16C892.787 233.904 893.053 233.701 893.363 233.552C893.672 233.403 894.008 233.275 894.371 233.168L896.515 232.496C896.685 232.453 896.797 232.389 896.851 232.304C896.915 232.219 896.947 232.091 896.947 231.92C896.947 231.76 896.915 231.653 896.851 231.6C896.787 231.536 896.675 231.504 896.515 231.504H893.043C892.84 231.504 892.691 231.461 892.595 231.376C892.509 231.28 892.467 231.131 892.467 230.928V229.056C892.467 228.853 892.509 228.709 892.595 228.624C892.691 228.528 892.84 228.48 893.043 228.48H897.763C898.669 228.48 899.363 228.709 899.843 229.168C900.333 229.616 900.579 230.272 900.579 231.136V232.64C900.579 233.44 900.355 234.053 899.907 234.48C899.459 234.907 898.851 235.237 898.083 235.472L895.907 236.16C895.747 236.203 895.635 236.251 895.571 236.304C895.517 236.357 895.491 236.469 895.491 236.64V236.976H900.051C900.253 236.976 900.397 237.024 900.483 237.12C900.579 237.205 900.627 237.349 900.627 237.552V239.424C900.627 239.627 900.579 239.776 900.483 239.872C900.397 239.957 900.253 240 900.051 240ZM902.798 236.976H906.814C907.07 236.976 907.235 236.928 907.31 236.832C907.384 236.736 907.422 236.624 907.422 236.496V236.064C907.422 235.936 907.384 235.829 907.31 235.744C907.235 235.648 907.07 235.6 906.814 235.6H904.094C903.891 235.6 903.742 235.557 903.646 235.472C903.56 235.376 903.518 235.227 903.518 235.024V233.312C903.518 233.109 903.56 232.965 903.646 232.88C903.742 232.784 903.891 232.736 904.094 232.736H905.774C906.03 232.736 906.195 232.688 906.27 232.592C906.344 232.496 906.382 232.384 906.382 232.256V232.016C906.382 231.888 906.344 231.776 906.27 231.68C906.195 231.584 906.03 231.536 905.774 231.536H902.798C902.595 231.536 902.446 231.493 902.35 231.408C902.264 231.312 902.222 231.163 902.222 230.96V229.056C902.222 228.853 902.264 228.709 902.35 228.624C902.446 228.528 902.595 228.48 902.798 228.48H907.262C908.147 228.48 908.803 228.688 909.23 229.104C909.667 229.509 909.885 230.064 909.885 230.768V231.696C909.885 232.101 909.816 232.453 909.678 232.752C909.539 233.051 909.294 233.275 908.942 233.424C909.699 233.509 910.222 233.744 910.51 234.128C910.808 234.501 910.958 235.04 910.958 235.744V237.344C910.958 238.165 910.696 238.816 910.174 239.296C909.651 239.765 908.878 240 907.854 240H902.798C902.595 240 902.446 239.957 902.35 239.872C902.264 239.776 902.222 239.627 902.222 239.424V237.552C902.222 237.349 902.264 237.205 902.35 237.12C902.446 237.024 902.595 236.976 902.798 236.976Z" fill="black"/>
<line x1="785" y1="235.5" x2="842" y2="235.5" stroke="black" stroke-width="5"/>
<path d="M755.553 284H710.447C708.884 283.996 707.349 283.583 705.995 282.802C704.641 282.021 703.515 280.899 702.729 279.548L680.188 240.452C679.409 239.097 679 237.562 679 236C679 234.438 679.409 232.903 680.188 231.548L702.729 192.488C703.51 191.13 704.634 190.001 705.988 189.214C707.343 188.426 708.88 188.008 710.447 188H755.553C757.117 188 758.654 188.412 760.008 189.193C761.363 189.975 762.488 191.099 763.271 192.452L785.812 231.548C786.591 232.903 787 234.438 787 236C787 237.562 786.591 239.097 785.812 240.452L763.259 279.512C762.484 280.873 761.364 282.005 760.01 282.793C758.657 283.581 757.119 283.998 755.553 284ZM710.447 193.772C709.89 193.774 709.344 193.921 708.862 194.199C708.38 194.476 707.978 194.875 707.698 195.356L685.145 234.416C684.868 234.898 684.722 235.444 684.722 236C684.722 236.556 684.868 237.102 685.145 237.584L707.698 276.644C707.978 277.125 708.38 277.524 708.862 277.801C709.344 278.079 709.89 278.226 710.447 278.228H755.553C756.11 278.226 756.656 278.079 757.138 277.801C757.62 277.524 758.022 277.125 758.302 276.644L780.855 237.584C781.132 237.102 781.278 236.556 781.278 236C781.278 235.444 781.132 234.898 780.855 234.416L758.302 195.356C758.022 194.875 757.62 194.476 757.138 194.199C756.656 193.921 756.11 193.774 755.553 193.772H710.447Z" fill="black"/>
<path d="M720.191 240H712.575C712.373 240 712.223 239.957 712.127 239.872C712.042 239.776 711.999 239.627 711.999 239.424V236.672C711.999 236.053 712.058 235.547 712.175 235.152C712.303 234.747 712.479 234.416 712.703 234.16C712.927 233.904 713.194 233.701 713.503 233.552C713.813 233.403 714.149 233.275 714.511 233.168L716.655 232.496C716.826 232.453 716.938 232.389 716.991 232.304C717.055 232.219 717.087 232.091 717.087 231.92C717.087 231.76 717.055 231.653 716.991 231.6C716.927 231.536 716.815 231.504 716.655 231.504H713.183C712.981 231.504 712.831 231.461 712.735 231.376C712.65 231.28 712.607 231.131 712.607 230.928V229.056C712.607 228.853 712.65 228.709 712.735 228.624C712.831 228.528 712.981 228.48 713.183 228.48H717.903C718.81 228.48 719.503 228.709 719.983 229.168C720.474 229.616 720.719 230.272 720.719 231.136V232.64C720.719 233.44 720.495 234.053 720.047 234.48C719.599 234.907 718.991 235.237 718.223 235.472L716.047 236.16C715.887 236.203 715.775 236.251 715.711 236.304C715.658 236.357 715.631 236.469 715.631 236.64V236.976H720.191C720.394 236.976 720.538 237.024 720.623 237.12C720.719 237.205 720.767 237.349 720.767 237.552V239.424C720.767 239.627 720.719 239.776 720.623 239.872C720.538 239.957 720.394 240 720.191 240ZM732.282 236.976C732.282 237.467 732.213 237.915 732.074 238.32C731.935 238.715 731.685 239.056 731.322 239.344C730.959 239.621 730.458 239.84 729.818 240C729.189 240.16 728.383 240.24 727.402 240.24C726.421 240.24 725.61 240.16 724.97 240C724.341 239.84 723.845 239.621 723.482 239.344C723.119 239.056 722.863 238.715 722.714 238.32C722.575 237.915 722.506 237.467 722.506 236.976V231.52C722.506 231.029 722.575 230.587 722.714 230.192C722.863 229.787 723.119 229.44 723.482 229.152C723.845 228.864 724.341 228.64 724.97 228.48C725.61 228.32 726.421 228.24 727.402 228.24C728.383 228.24 729.189 228.32 729.818 228.48C730.458 228.64 730.959 228.864 731.322 229.152C731.685 229.44 731.935 229.787 732.074 230.192C732.213 230.587 732.282 231.029 732.282 231.52V236.976ZM726.122 236.4C726.122 236.613 726.197 236.795 726.346 236.944C726.506 237.083 726.858 237.152 727.402 237.152C727.946 237.152 728.293 237.083 728.442 236.944C728.602 236.795 728.682 236.613 728.682 236.4V232.096C728.682 231.893 728.602 231.723 728.442 231.584C728.293 231.435 727.946 231.36 727.402 231.36C726.858 231.36 726.506 231.435 726.346 231.584C726.197 231.723 726.122 231.893 726.122 232.096V236.4ZM742.035 240H734.419C734.216 240 734.067 239.957 733.971 239.872C733.886 239.776 733.843 239.627 733.843 239.424V236.672C733.843 236.053 733.902 235.547 734.019 235.152C734.147 234.747 734.323 234.416 734.547 234.16C734.771 233.904 735.038 233.701 735.347 233.552C735.656 233.403 735.992 233.275 736.355 233.168L738.499 232.496C738.67 232.453 738.782 232.389 738.835 232.304C738.899 232.219 738.931 232.091 738.931 231.92C738.931 231.76 738.899 231.653 738.835 231.6C738.771 231.536 738.659 231.504 738.499 231.504H735.027C734.824 231.504 734.675 231.461 734.579 231.376C734.494 231.28 734.451 231.131 734.451 230.928V229.056C734.451 228.853 734.494 228.709 734.579 228.624C734.675 228.528 734.824 228.48 735.027 228.48H739.747C740.654 228.48 741.347 228.709 741.827 229.168C742.318 229.616 742.563 230.272 742.563 231.136V232.64C742.563 233.44 742.339 234.053 741.891 234.48C741.443 234.907 740.835 235.237 740.067 235.472L737.891 236.16C737.731 236.203 737.619 236.251 737.555 236.304C737.502 236.357 737.475 236.469 737.475 236.64V236.976H742.035C742.238 236.976 742.382 237.024 742.467 237.12C742.563 237.205 742.611 237.349 742.611 237.552V239.424C742.611 239.627 742.563 239.776 742.467 239.872C742.382 239.957 742.238 240 742.035 240ZM752.254 240H744.638C744.435 240 744.286 239.957 744.19 239.872C744.105 239.776 744.062 239.627 744.062 239.424V236.672C744.062 236.053 744.121 235.547 744.238 235.152C744.366 234.747 744.542 234.416 744.766 234.16C744.99 233.904 745.257 233.701 745.566 233.552C745.875 233.403 746.211 233.275 746.574 233.168L748.718 232.496C748.889 232.453 749.001 232.389 749.054 232.304C749.118 232.219 749.15 232.091 749.15 231.92C749.15 231.76 749.118 231.653 749.054 231.6C748.99 231.536 748.878 231.504 748.718 231.504H745.246C745.043 231.504 744.894 231.461 744.798 231.376C744.713 231.28 744.67 231.131 744.67 230.928V229.056C744.67 228.853 744.713 228.709 744.798 228.624C744.894 228.528 745.043 228.48 745.246 228.48H749.966C750.873 228.48 751.566 228.709 752.046 229.168C752.537 229.616 752.782 230.272 752.782 231.136V232.64C752.782 233.44 752.558 234.053 752.11 234.48C751.662 234.907 751.054 235.237 750.286 235.472L748.11 236.16C747.95 236.203 747.838 236.251 747.774 236.304C747.721 236.357 747.694 236.469 747.694 236.64V236.976H752.254C752.457 236.976 752.601 237.024 752.686 237.12C752.782 237.205 752.83 237.349 752.83 237.552V239.424C752.83 239.627 752.782 239.776 752.686 239.872C752.601 239.957 752.457 240 752.254 240Z" fill="black"/>
<line x1="627" y1="235.5" x2="684" y2="235.5" stroke="black" stroke-width="5"/>
<path d="M601.553 284H556.447C554.884 283.996 553.349 283.583 551.995 282.802C550.641 282.021 549.515 280.899 548.729 279.548L526.188 240.452C525.409 239.097 525 237.562 525 236C525 234.438 525.409 232.903 526.188 231.548L548.729 192.488C549.51 191.13 550.634 190.001 551.988 189.214C553.343 188.426 554.88 188.008 556.447 188H601.553C603.117 188 604.654 188.412 606.008 189.193C607.363 189.975 608.488 191.099 609.271 192.452L631.812 231.548C632.591 232.903 633 234.438 633 236C633 237.562 632.591 239.097 631.812 240.452L609.259 279.512C608.484 280.873 607.364 282.005 606.01 282.793C604.657 283.581 603.119 283.998 601.553 284ZM556.447 193.772C555.89 193.774 555.344 193.921 554.862 194.199C554.38 194.476 553.978 194.875 553.698 195.356L531.145 234.416C530.868 234.898 530.722 235.444 530.722 236C530.722 236.556 530.868 237.102 531.145 237.584L553.698 276.644C553.978 277.125 554.38 277.524 554.862 277.801C555.344 278.079 555.89 278.226 556.447 278.228H601.553C602.11 278.226 602.656 278.079 603.138 277.801C603.62 277.524 604.022 277.125 604.302 276.644L626.855 237.584C627.132 237.102 627.278 236.556 627.278 236C627.278 235.444 627.132 234.898 626.855 234.416L604.302 195.356C604.022 194.875 603.62 194.476 603.138 194.199C602.656 193.921 602.11 193.774 601.553 193.772H556.447Z" fill="black"/>
<path d="M566.496 240H558.88C558.677 240 558.528 239.957 558.432 239.872C558.347 239.776 558.304 239.627 558.304 239.424V236.672C558.304 236.053 558.363 235.547 558.48 235.152C558.608 234.747 558.784 234.416 559.008 234.16C559.232 233.904 559.499 233.701 559.808 233.552C560.117 233.403 560.453 233.275 560.816 233.168L562.96 232.496C563.131 232.453 563.243 232.389 563.296 232.304C563.36 232.219 563.392 232.091 563.392 231.92C563.392 231.76 563.36 231.653 563.296 231.6C563.232 231.536 563.12 231.504 562.96 231.504H559.488C559.285 231.504 559.136 231.461 559.04 231.376C558.955 231.28 558.912 231.131 558.912 230.928V229.056C558.912 228.853 558.955 228.709 559.04 228.624C559.136 228.528 559.285 228.48 559.488 228.48H564.208C565.115 228.48 565.808 228.709 566.288 229.168C566.779 229.616 567.024 230.272 567.024 231.136V232.64C567.024 233.44 566.8 234.053 566.352 234.48C565.904 234.907 565.296 235.237 564.528 235.472L562.352 236.16C562.192 236.203 562.08 236.251 562.016 236.304C561.963 236.357 561.936 236.469 561.936 236.64V236.976H566.496C566.699 236.976 566.843 237.024 566.928 237.12C567.024 237.205 567.072 237.349 567.072 237.552V239.424C567.072 239.627 567.024 239.776 566.928 239.872C566.843 239.957 566.699 240 566.496 240ZM578.587 236.976C578.587 237.467 578.517 237.915 578.379 238.32C578.24 238.715 577.989 239.056 577.627 239.344C577.264 239.621 576.763 239.84 576.123 240C575.493 240.16 574.688 240.24 573.707 240.24C572.725 240.24 571.915 240.16 571.275 240C570.645 239.84 570.149 239.621 569.787 239.344C569.424 239.056 569.168 238.715 569.019 238.32C568.88 237.915 568.811 237.467 568.811 236.976V231.52C568.811 231.029 568.88 230.587 569.019 230.192C569.168 229.787 569.424 229.44 569.787 229.152C570.149 228.864 570.645 228.64 571.275 228.48C571.915 228.32 572.725 228.24 573.707 228.24C574.688 228.24 575.493 228.32 576.123 228.48C576.763 228.64 577.264 228.864 577.627 229.152C577.989 229.44 578.24 229.787 578.379 230.192C578.517 230.587 578.587 231.029 578.587 231.52V236.976ZM572.427 236.4C572.427 236.613 572.501 236.795 572.651 236.944C572.811 237.083 573.163 237.152 573.707 237.152C574.251 237.152 574.597 237.083 574.747 236.944C574.907 236.795 574.987 236.613 574.987 236.4V232.096C574.987 231.893 574.907 231.723 574.747 231.584C574.597 231.435 574.251 231.36 573.707 231.36C573.163 231.36 572.811 231.435 572.651 231.584C572.501 231.723 572.427 231.893 572.427 232.096V236.4ZM588.34 240H580.724C580.521 240 580.372 239.957 580.276 239.872C580.19 239.776 580.148 239.627 580.148 239.424V236.672C580.148 236.053 580.206 235.547 580.324 235.152C580.452 234.747 580.628 234.416 580.852 234.16C581.076 233.904 581.342 233.701 581.652 233.552C581.961 233.403 582.297 233.275 582.66 233.168L584.804 232.496C584.974 232.453 585.086 232.389 585.14 232.304C585.204 232.219 585.236 232.091 585.236 231.92C585.236 231.76 585.204 231.653 585.14 231.6C585.076 231.536 584.964 231.504 584.804 231.504H581.332C581.129 231.504 580.98 231.461 580.884 231.376C580.798 231.28 580.756 231.131 580.756 230.928V229.056C580.756 228.853 580.798 228.709 580.884 228.624C580.98 228.528 581.129 228.48 581.332 228.48H586.052C586.958 228.48 587.652 228.709 588.132 229.168C588.622 229.616 588.868 230.272 588.868 231.136V232.64C588.868 233.44 588.644 234.053 588.196 234.48C587.748 234.907 587.14 235.237 586.372 235.472L584.196 236.16C584.036 236.203 583.924 236.251 583.86 236.304C583.806 236.357 583.78 236.469 583.78 236.64V236.976H588.34C588.542 236.976 588.686 237.024 588.772 237.12C588.868 237.205 588.916 237.349 588.916 237.552V239.424C588.916 239.627 588.868 239.776 588.772 239.872C588.686 239.957 588.542 240 588.34 240ZM598.143 240H591.071C590.868 240 590.719 239.957 590.623 239.872C590.537 239.776 590.495 239.627 590.495 239.424V237.488C590.495 237.285 590.537 237.141 590.623 237.056C590.719 236.96 590.868 236.912 591.071 236.912H592.863V231.568H591.391C591.188 231.568 591.039 231.525 590.943 231.44C590.857 231.344 590.815 231.195 590.815 230.992V229.056C590.815 228.853 590.857 228.709 590.943 228.624C591.039 228.528 591.188 228.48 591.391 228.48H596.031C596.233 228.48 596.377 228.528 596.463 228.624C596.559 228.709 596.607 228.853 596.607 229.056V236.912H598.143C598.345 236.912 598.489 236.96 598.575 237.056C598.671 237.141 598.719 237.285 598.719 237.488V239.424C598.719 239.627 598.671 239.776 598.575 239.872C598.489 239.957 598.345 240 598.143 240Z" fill="black"/>
<line x1="473" y1="235.5" x2="530" y2="235.5" stroke="black" stroke-width="5"/>
<path d="M159.435 58H204.565C206.125 58.0046 207.656 58.4182 209.006 59.1995C210.356 59.9809 211.478 61.1027 212.259 62.453L234.812 101.57C235.59 102.92 236 104.452 236 106.011C236 107.57 235.59 109.101 234.812 110.452L212.259 149.533C211.482 150.89 210.363 152.019 209.013 152.806C207.662 153.594 206.128 154.013 204.565 154.022H159.435C157.875 154.017 156.344 153.603 154.994 152.822C153.644 152.041 152.522 150.919 151.741 149.569L129.188 110.452C128.41 109.101 128 107.57 128 106.011C128 104.452 128.41 102.92 129.188 101.57L151.753 62.489C152.529 61.1338 153.646 60.0059 154.994 59.2181C156.342 58.4303 157.874 58.0103 159.435 58Z" fill="black"/>
<path d="M159.435 58H204.565C206.125 58.0046 207.656 58.4182 209.006 59.1995C210.356 59.9809 211.478 61.1027 212.259 62.453L234.812 101.57C235.59 102.92 236 104.452 236 106.011C236 107.57 235.59 109.101 234.812 110.452L212.259 149.533C211.482 150.89 210.363 152.019 209.013 152.806C207.662 153.594 206.128 154.013 204.565 154.022H159.435C157.875 154.017 156.344 153.603 154.994 152.822C153.644 152.041 152.522 150.919 151.741 149.569L129.188 110.452C128.41 109.101 128 107.57 128 106.011C128 104.452 128.41 102.92 129.188 101.57L151.753 62.489C152.529 61.1338 153.646 60.0059 154.994 59.2181C156.342 58.4303 157.874 58.0103 159.435 58Z" fill="black"/>
<path d="M791.435 58H836.565C838.125 58.0046 839.656 58.4182 841.006 59.1995C842.356 59.9809 843.478 61.1027 844.259 62.453L866.812 101.57C867.59 102.92 868 104.452 868 106.011C868 107.57 867.59 109.101 866.812 110.452L844.259 149.533C843.482 150.89 842.363 152.019 841.013 152.806C839.662 153.594 838.128 154.013 836.565 154.022H791.435C789.875 154.017 788.344 153.603 786.994 152.822C785.644 152.041 784.522 150.919 783.741 149.569L761.188 110.452C760.41 109.101 760 107.57 760 106.011C760 104.452 760.41 102.92 761.188 101.57L783.753 62.489C784.529 61.1338 785.646 60.0059 786.994 59.2181C788.342 58.4303 789.874 58.0103 791.435 58Z" fill="black"/>
<path d="M161.435 318H206.565C208.125 318.005 209.656 318.418 211.006 319.2C212.356 319.981 213.478 321.103 214.259 322.453L236.812 361.57C237.59 362.92 238 364.452 238 366.011C238 367.57 237.59 369.101 236.812 370.452L214.259 409.533C213.482 410.89 212.363 412.019 211.013 412.806C209.662 413.594 208.128 414.013 206.565 414.022H161.435C159.875 414.017 158.344 413.603 156.994 412.822C155.644 412.041 154.522 410.919 153.741 409.569L131.188 370.452C130.41 369.101 130 367.57 130 366.011C130 364.452 130.41 362.92 131.188 361.57L153.753 322.489C154.529 321.134 155.646 320.006 156.994 319.218C158.342 318.43 159.874 318.01 161.435 318Z" fill="black"/>
<path d="M945.435 318H990.565C992.125 318.005 993.656 318.418 995.006 319.2C996.356 319.981 997.478 321.103 998.259 322.453L1020.81 361.57C1021.59 362.92 1022 364.452 1022 366.011C1022 367.57 1021.59 369.101 1020.81 370.452L998.259 409.533C997.482 410.89 996.363 412.019 995.013 412.806C993.662 413.594 992.128 414.013 990.565 414.022H945.435C943.875 414.017 942.344 413.603 940.994 412.822C939.644 412.041 938.522 410.919 937.741 409.569L915.188 370.452C914.41 369.101 914 367.57 914 366.011C914 364.452 914.41 362.92 915.188 361.57L937.753 322.489C938.529 321.134 939.646 320.006 940.994 319.218C942.342 318.43 943.874 318.01 945.435 318Z" fill="black"/>
<line x1="233.913" y1="191.376" x2="204.913" y2="147.376" stroke="black" stroke-width="5"/>
<path d="M321.435 58H366.565C368.125 58.0046 369.656 58.4182 371.006 59.1995C372.356 59.9809 373.478 61.1027 374.259 62.453L396.812 101.57C397.59 102.92 398 104.452 398 106.011C398 107.57 397.59 109.101 396.812 110.452L374.259 149.533C373.482 150.89 372.363 152.019 371.013 152.806C369.662 153.594 368.128 154.013 366.565 154.022H321.435C319.875 154.017 318.344 153.603 316.994 152.822C315.644 152.041 314.522 150.919 313.741 149.569L291.188 110.452C290.41 109.101 290 107.57 290 106.011C290 104.452 290.41 102.92 291.188 101.57L313.753 62.489C314.529 61.1338 315.646 60.0059 316.994 59.2181C318.342 58.4303 319.874 58.0103 321.435 58Z" fill="black"/>
<line x1="395.913" y1="191.376" x2="366.913" y2="147.376" stroke="black" stroke-width="5"/>
<line x1="865.913" y1="191.376" x2="836.913" y2="147.376" stroke="black" stroke-width="5"/>
<line x1="707.512" y1="191.423" x2="647.422" y2="107.488" stroke="black" stroke-width="5" stroke-linecap="round"/>
<line x1="156.913" y1="322.376" x2="127.913" y2="278.376" stroke="black" stroke-width="5"/>
<path d="M479.435 58H524.565C526.125 58.0046 527.656 58.4182 529.006 59.1995C530.356 59.9809 531.478 61.1027 532.259 62.453L554.812 101.57C555.59 102.92 556 104.452 556 106.011C556 107.57 555.59 109.101 554.812 110.452L532.259 149.533C531.482 150.89 530.363 152.019 529.013 152.806C527.662 153.594 526.128 154.013 524.565 154.022H479.435C477.875 154.017 476.344 153.603 474.994 152.822C473.644 152.041 472.522 150.919 471.741 149.569L449.188 110.452C448.41 109.101 448 107.57 448 106.011C448 104.452 448.41 102.92 449.188 101.57L471.753 62.489C472.529 61.1338 473.646 60.0059 474.994 59.2181C476.342 58.4303 477.874 58.0103 479.435 58Z" fill="black"/>
<path d="M557.169 283.243C557.856 282.045 557.441 280.518 556.243 279.831C555.045 279.144 553.518 279.559 552.831 280.757L557.169 283.243ZM552.831 280.757L505.831 362.757L510.169 365.243L557.169 283.243L552.831 280.757Z" fill="black"/>
<path d="M479.101 149.354C479.849 148.194 479.515 146.647 478.354 145.899C477.194 145.151 475.647 145.485 474.899 146.646L479.101 149.354ZM474.899 146.646L445.899 191.646L450.101 194.354L479.101 149.354L474.899 146.646Z" fill="black"/>
<path d="M791.101 148.354C791.849 147.194 791.515 145.647 790.354 144.899C789.194 144.151 787.647 144.485 786.899 145.646L791.101 148.354ZM786.899 145.646L757.899 190.646L762.101 193.354L791.101 148.354L786.899 145.646Z" fill="black"/>
<path d="M1022.1 283.354C1022.85 282.194 1022.51 280.647 1021.35 279.899C1020.19 279.151 1018.65 279.485 1017.9 280.646L1022.1 283.354ZM1017.9 280.646L988.899 325.646L993.101 328.354L1022.1 283.354L1017.9 280.646Z" fill="black"/>
<path d="M177.787 366.976C177.787 367.467 177.712 367.915 177.563 368.32C177.424 368.715 177.168 369.056 176.795 369.344C176.432 369.621 175.931 369.84 175.291 370C174.651 370.16 173.835 370.24 172.843 370.24C171.851 370.24 171.035 370.16 170.395 370C169.755 369.84 169.248 369.621 168.875 369.344C168.512 369.056 168.256 368.715 168.107 368.32C167.968 367.915 167.899 367.467 167.899 366.976V359.056C167.899 358.853 167.942 358.709 168.027 358.624C168.123 358.528 168.272 358.48 168.475 358.48H170.987C171.19 358.48 171.334 358.528 171.419 358.624C171.515 358.709 171.563 358.853 171.563 359.056V366.352C171.563 366.565 171.643 366.747 171.803 366.896C171.963 367.035 172.32 367.104 172.875 367.104C173.44 367.104 173.803 367.035 173.963 366.896C174.123 366.747 174.203 366.565 174.203 366.352V359.056C174.203 358.853 174.246 358.709 174.331 358.624C174.427 358.528 174.576 358.48 174.779 358.48H177.211C177.414 358.48 177.558 358.528 177.643 358.624C177.739 358.709 177.787 358.853 177.787 359.056V366.976ZM185.261 370H180.205C180.002 370 179.853 369.957 179.757 369.872C179.671 369.776 179.629 369.627 179.629 369.424V367.552C179.629 367.349 179.671 367.205 179.757 367.12C179.853 367.024 180.002 366.976 180.205 366.976H184.509C184.647 366.976 184.749 366.933 184.813 366.848C184.887 366.752 184.925 366.64 184.925 366.512C184.925 366.331 184.887 366.197 184.813 366.112C184.749 366.027 184.647 365.979 184.509 365.968L182.109 365.632C181.362 365.525 180.759 365.28 180.301 364.896C179.853 364.512 179.629 363.872 179.629 362.976V361.296C179.629 360.389 179.922 359.696 180.509 359.216C181.095 358.725 181.906 358.48 182.941 358.48H187.421C187.623 358.48 187.767 358.528 187.852 358.624C187.948 358.709 187.997 358.853 187.997 359.056V360.96C187.997 361.163 187.948 361.312 187.852 361.408C187.767 361.493 187.623 361.536 187.421 361.536H183.693C183.554 361.536 183.447 361.584 183.373 361.68C183.298 361.765 183.261 361.877 183.261 362.016C183.261 362.155 183.298 362.272 183.373 362.368C183.447 362.464 183.554 362.517 183.693 362.528L186.077 362.848C186.823 362.955 187.426 363.2 187.885 363.584C188.343 363.968 188.573 364.608 188.573 365.504V367.184C188.573 368.091 188.274 368.789 187.677 369.28C187.09 369.76 186.285 370 185.261 370ZM193.379 370H190.899C190.696 370 190.547 369.957 190.451 369.872C190.365 369.776 190.323 369.627 190.323 369.424V359.056C190.323 358.853 190.365 358.709 190.451 358.624C190.547 358.528 190.696 358.48 190.899 358.48H195.795C197.245 358.48 198.237 358.768 198.771 359.344C199.304 359.92 199.571 360.672 199.571 361.6V363.648C199.571 364.576 199.304 365.328 198.771 365.904C198.237 366.48 197.245 366.768 195.795 366.768H193.955V369.424C193.955 369.627 193.907 369.776 193.811 369.872C193.725 369.957 193.581 370 193.379 370ZM193.923 361.472V363.888H195.363C195.672 363.888 195.875 363.808 195.971 363.648C196.067 363.488 196.115 363.307 196.115 363.104V362.256C196.115 362.053 196.067 361.872 195.971 361.712C195.875 361.552 195.672 361.472 195.363 361.472H193.923Z" fill="white"/>
<path d="M172.115 92H169.685C169.495 92 169.355 91.96 169.265 91.88C169.185 91.79 169.145 91.65 169.145 91.46V84.095H166.94C166.75 84.095 166.61 84.055 166.52 83.975C166.44 83.885 166.4 83.745 166.4 83.555V81.74C166.4 81.55 166.44 81.415 166.52 81.335C166.61 81.245 166.75 81.2 166.94 81.2H174.86C175.05 81.2 175.185 81.245 175.265 81.335C175.355 81.415 175.4 81.55 175.4 81.74V83.555C175.4 83.745 175.355 83.885 175.265 83.975C175.185 84.055 175.05 84.095 174.86 84.095H172.655V91.46C172.655 91.65 172.61 91.79 172.52 91.88C172.44 91.96 172.305 92 172.115 92ZM179.724 92H177.399C177.209 92 177.069 91.96 176.979 91.88C176.899 91.79 176.859 91.65 176.859 91.46V81.74C176.859 81.55 176.899 81.415 176.979 81.335C177.069 81.245 177.209 81.2 177.399 81.2H179.724C179.914 81.2 180.049 81.245 180.129 81.335C180.219 81.415 180.264 81.55 180.264 81.74V84.995H182.769V81.74C182.769 81.55 182.809 81.415 182.889 81.335C182.979 81.245 183.119 81.2 183.309 81.2H185.634C185.824 81.2 185.959 81.245 186.039 81.335C186.129 81.415 186.174 81.55 186.174 81.74V91.46C186.174 91.65 186.129 91.79 186.039 91.88C185.959 91.96 185.824 92 185.634 92H183.309C183.119 92 182.979 91.96 182.889 91.88C182.809 91.79 182.769 91.65 182.769 91.46V88.13H180.264V91.46C180.264 91.65 180.219 91.79 180.129 91.88C180.049 91.96 179.914 92 179.724 92ZM195.741 92H188.781C188.591 92 188.451 91.96 188.361 91.88C188.281 91.79 188.241 91.65 188.241 91.46V81.74C188.241 81.55 188.281 81.415 188.361 81.335C188.451 81.245 188.591 81.2 188.781 81.2H195.741C195.931 81.2 196.066 81.245 196.146 81.335C196.236 81.415 196.281 81.55 196.281 81.74V83.495C196.281 83.685 196.236 83.825 196.146 83.915C196.066 83.995 195.931 84.035 195.741 84.035H191.601V85.19H194.526C194.716 85.19 194.851 85.235 194.931 85.325C195.021 85.405 195.066 85.54 195.066 85.73V87.335C195.066 87.525 195.021 87.665 194.931 87.755C194.851 87.835 194.716 87.875 194.526 87.875H191.601V89.165H195.741C195.931 89.165 196.066 89.21 196.146 89.3C196.236 89.38 196.281 89.515 196.281 89.705V91.46C196.281 91.65 196.236 91.79 196.146 91.88C196.066 91.96 195.931 92 195.741 92ZM140.431 107.165C140.431 107.625 140.361 108.045 140.221 108.425C140.091 108.795 139.851 109.115 139.501 109.385C139.161 109.645 138.691 109.85 138.091 110C137.491 110.15 136.726 110.225 135.796 110.225C134.866 110.225 134.101 110.15 133.501 110C132.901 109.85 132.426 109.645 132.076 109.385C131.736 109.115 131.496 108.795 131.356 108.425C131.226 108.045 131.161 107.625 131.161 107.165V99.74C131.161 99.55 131.201 99.415 131.281 99.335C131.371 99.245 131.511 99.2 131.701 99.2H134.056C134.246 99.2 134.381 99.245 134.461 99.335C134.551 99.415 134.596 99.55 134.596 99.74V106.58C134.596 106.78 134.671 106.95 134.821 107.09C134.971 107.22 135.306 107.285 135.826 107.285C136.356 107.285 136.696 107.22 136.846 107.09C136.996 106.95 137.071 106.78 137.071 106.58V99.74C137.071 99.55 137.111 99.415 137.191 99.335C137.281 99.245 137.421 99.2 137.611 99.2H139.891C140.081 99.2 140.216 99.245 140.296 99.335C140.386 99.415 140.431 99.55 140.431 99.74V107.165ZM145.218 110H142.968C142.778 110 142.638 109.96 142.548 109.88C142.468 109.79 142.428 109.65 142.428 109.46V99.74C142.428 99.55 142.468 99.415 142.548 99.335C142.638 99.245 142.778 99.2 142.968 99.2H144.528C144.718 99.2 144.878 99.23 145.008 99.29C145.148 99.35 145.283 99.455 145.413 99.605L148.323 102.935V99.74C148.323 99.55 148.363 99.415 148.443 99.335C148.533 99.245 148.673 99.2 148.863 99.2H151.113C151.303 99.2 151.438 99.245 151.518 99.335C151.608 99.415 151.653 99.55 151.653 99.74V109.46C151.653 109.65 151.608 109.79 151.518 109.88C151.438 109.96 151.303 110 151.113 110H148.863C148.673 110 148.533 109.96 148.443 109.88C148.363 109.79 148.323 109.65 148.323 109.46V107.615L145.758 104.51V109.46C145.758 109.65 145.713 109.79 145.623 109.88C145.543 109.96 145.408 110 145.218 110ZM154.022 110C153.832 110 153.692 109.96 153.602 109.88C153.522 109.79 153.482 109.65 153.482 109.46V107.675C153.482 107.485 153.522 107.35 153.602 107.27C153.692 107.18 153.832 107.135 154.022 107.135H155.507V102.095H154.022C153.832 102.095 153.692 102.055 153.602 101.975C153.522 101.885 153.482 101.745 153.482 101.555V99.74C153.482 99.55 153.522 99.415 153.602 99.335C153.692 99.245 153.832 99.2 154.022 99.2H160.412C160.602 99.2 160.737 99.245 160.817 99.335C160.907 99.415 160.952 99.55 160.952 99.74V101.555C160.952 101.745 160.907 101.885 160.817 101.975C160.737 102.055 160.602 102.095 160.412 102.095H158.957V107.135H160.412C160.602 107.135 160.737 107.18 160.817 107.27C160.907 107.35 160.952 107.485 160.952 107.675V109.46C160.952 109.65 160.907 109.79 160.817 109.88C160.737 109.96 160.602 110 160.412 110H154.022ZM169.194 110H165.294C165.104 110 164.944 109.965 164.814 109.895C164.694 109.825 164.599 109.695 164.529 109.505L163.059 105.83C162.969 105.61 162.894 105.42 162.834 105.26C162.774 105.09 162.724 104.93 162.684 104.78C162.644 104.63 162.614 104.475 162.594 104.315C162.584 104.145 162.579 103.94 162.579 103.7V99.74C162.579 99.55 162.619 99.415 162.699 99.335C162.789 99.245 162.929 99.2 163.119 99.2H165.504C165.694 99.2 165.839 99.245 165.939 99.335C166.039 99.415 166.089 99.55 166.089 99.74V103.88C166.089 103.98 166.099 104.08 166.119 104.18C166.139 104.28 166.169 104.385 166.209 104.495L166.914 106.595C166.944 106.695 166.979 106.765 167.019 106.805C167.059 106.835 167.119 106.85 167.199 106.85H167.364C167.444 106.85 167.504 106.835 167.544 106.805C167.584 106.765 167.619 106.695 167.649 106.595L168.354 104.48C168.394 104.37 168.424 104.265 168.444 104.165C168.464 104.065 168.474 103.965 168.474 103.865V99.74C168.474 99.55 168.514 99.415 168.594 99.335C168.684 99.245 168.824 99.2 169.014 99.2H171.369C171.559 99.2 171.694 99.245 171.774 99.335C171.864 99.415 171.909 99.55 171.909 99.74V103.7C171.909 103.94 171.899 104.145 171.879 104.315C171.869 104.475 171.844 104.63 171.804 104.78C171.764 104.93 171.714 105.09 171.654 105.26C171.594 105.42 171.519 105.61 171.429 105.83L169.959 109.505C169.889 109.695 169.789 109.825 169.659 109.895C169.539 109.965 169.384 110 169.194 110ZM181.261 110H174.301C174.111 110 173.971 109.96 173.881 109.88C173.801 109.79 173.761 109.65 173.761 109.46V99.74C173.761 99.55 173.801 99.415 173.881 99.335C173.971 99.245 174.111 99.2 174.301 99.2H181.261C181.451 99.2 181.586 99.245 181.666 99.335C181.756 99.415 181.801 99.55 181.801 99.74V101.495C181.801 101.685 181.756 101.825 181.666 101.915C181.586 101.995 181.451 102.035 181.261 102.035H177.121V103.19H180.046C180.236 103.19 180.371 103.235 180.451 103.325C180.541 103.405 180.586 103.54 180.586 103.73V105.335C180.586 105.525 180.541 105.665 180.451 105.755C180.371 105.835 180.236 105.875 180.046 105.875H177.121V107.165H181.261C181.451 107.165 181.586 107.21 181.666 107.3C181.756 107.38 181.801 107.515 181.801 107.705V109.46C181.801 109.65 181.756 109.79 181.666 109.88C181.586 109.96 181.451 110 181.261 110ZM186.965 101.9V103.82H188.09C188.35 103.82 188.525 103.755 188.615 103.625C188.705 103.485 188.75 103.315 188.75 103.115V102.605C188.75 102.405 188.705 102.24 188.615 102.11C188.525 101.97 188.35 101.9 188.09 101.9H186.965ZM186.425 110H184.115C183.925 110 183.785 109.96 183.695 109.88C183.615 109.79 183.575 109.65 183.575 109.46V99.74C183.575 99.55 183.615 99.415 183.695 99.335C183.785 99.245 183.925 99.2 184.115 99.2H189.11C190.23 99.2 191 99.435 191.42 99.905C191.85 100.365 192.065 100.965 192.065 101.705V102.395C192.065 102.815 192 103.175 191.87 103.475C191.75 103.765 191.535 103.975 191.225 104.105C191.765 104.165 192.2 104.385 192.53 104.765C192.87 105.145 193.04 105.65 193.04 106.28V109.46C193.04 109.65 192.995 109.79 192.905 109.88C192.825 109.96 192.69 110 192.5 110H190.175C189.985 110 189.845 109.96 189.755 109.88C189.675 109.79 189.635 109.65 189.635 109.46V107.165C189.635 106.945 189.59 106.785 189.5 106.685C189.42 106.575 189.275 106.52 189.065 106.52H186.965V109.46C186.965 109.65 186.92 109.79 186.83 109.88C186.75 109.96 186.615 110 186.425 110ZM199.733 110H194.993C194.803 110 194.663 109.96 194.573 109.88C194.493 109.79 194.453 109.65 194.453 109.46V107.705C194.453 107.515 194.493 107.38 194.573 107.3C194.663 107.21 194.803 107.165 194.993 107.165H199.028C199.158 107.165 199.253 107.125 199.313 107.045C199.383 106.955 199.418 106.85 199.418 106.73C199.418 106.56 199.383 106.435 199.313 106.355C199.253 106.275 199.158 106.23 199.028 106.22L196.778 105.905C196.078 105.805 195.513 105.575 195.083 105.215C194.663 104.855 194.453 104.255 194.453 103.415V101.84C194.453 100.99 194.728 100.34 195.278 99.89C195.828 99.43 196.588 99.2 197.558 99.2H201.758C201.948 99.2 202.083 99.245 202.162 99.335C202.252 99.415 202.298 99.55 202.298 99.74V101.525C202.298 101.715 202.252 101.855 202.162 101.945C202.083 102.025 201.948 102.065 201.758 102.065H198.263C198.133 102.065 198.033 102.11 197.963 102.2C197.893 102.28 197.858 102.385 197.858 102.515C197.858 102.645 197.893 102.755 197.963 102.845C198.033 102.935 198.133 102.985 198.263 102.995L200.498 103.295C201.198 103.395 201.763 103.625 202.193 103.985C202.623 104.345 202.838 104.945 202.838 105.785V107.36C202.838 108.21 202.558 108.865 201.998 109.325C201.448 109.775 200.693 110 199.733 110ZM204.778 110C204.588 110 204.448 109.96 204.358 109.88C204.278 109.79 204.238 109.65 204.238 109.46V107.675C204.238 107.485 204.278 107.35 204.358 107.27C204.448 107.18 204.588 107.135 204.778 107.135H206.263V102.095H204.778C204.588 102.095 204.448 102.055 204.358 101.975C204.278 101.885 204.238 101.745 204.238 101.555V99.74C204.238 99.55 204.278 99.415 204.358 99.335C204.448 99.245 204.588 99.2 204.778 99.2H211.168C211.358 99.2 211.493 99.245 211.573 99.335C211.663 99.415 211.708 99.55 211.708 99.74V101.555C211.708 101.745 211.663 101.885 211.573 101.975C211.493 102.055 211.358 102.095 211.168 102.095H209.713V107.135H211.168C211.358 107.135 211.493 107.18 211.573 107.27C211.663 107.35 211.708 107.485 211.708 107.675V109.46C211.708 109.65 211.663 109.79 211.573 109.88C211.493 109.96 211.358 110 211.168 110H204.778ZM218.66 110H216.23C216.04 110 215.9 109.96 215.81 109.88C215.73 109.79 215.69 109.65 215.69 109.46V102.095H213.485C213.295 102.095 213.155 102.055 213.065 101.975C212.985 101.885 212.945 101.745 212.945 101.555V99.74C212.945 99.55 212.985 99.415 213.065 99.335C213.155 99.245 213.295 99.2 213.485 99.2H221.405C221.595 99.2 221.73 99.245 221.81 99.335C221.9 99.415 221.945 99.55 221.945 99.74V101.555C221.945 101.745 221.9 101.885 221.81 101.975C221.73 102.055 221.595 102.095 221.405 102.095H219.2V109.46C219.2 109.65 219.155 109.79 219.065 109.88C218.985 109.96 218.85 110 218.66 110ZM228.879 110H226.449C226.259 110 226.119 109.96 226.029 109.88C225.949 109.79 225.909 109.65 225.909 109.46V107.54L223.614 104.465C223.384 104.155 223.229 103.885 223.149 103.655C223.079 103.425 223.044 103.08 223.044 102.62V99.74C223.044 99.55 223.084 99.415 223.164 99.335C223.254 99.245 223.394 99.2 223.584 99.2H225.894C226.084 99.2 226.219 99.245 226.299 99.335C226.389 99.415 226.434 99.55 226.434 99.74V102.2C226.434 102.3 226.439 102.405 226.449 102.515C226.459 102.625 226.499 102.73 226.569 102.83L227.259 103.91C227.309 104 227.359 104.065 227.409 104.105C227.469 104.145 227.539 104.165 227.619 104.165H227.769C227.849 104.165 227.914 104.145 227.964 104.105C228.024 104.065 228.079 104 228.129 103.91L228.819 102.83C228.889 102.73 228.929 102.625 228.939 102.515C228.949 102.405 228.954 102.3 228.954 102.2V99.74C228.954 99.55 228.994 99.415 229.074 99.335C229.164 99.245 229.304 99.2 229.494 99.2H231.729C231.919 99.2 232.054 99.245 232.134 99.335C232.224 99.415 232.269 99.55 232.269 99.74V102.62C232.269 103.08 232.229 103.425 232.149 103.655C232.069 103.885 231.919 104.155 231.699 104.465L229.419 107.555V109.46C229.419 109.65 229.374 109.79 229.284 109.88C229.204 109.96 229.069 110 228.879 110ZM153.299 125.165C153.299 125.625 153.229 126.045 153.089 126.425C152.959 126.795 152.719 127.115 152.369 127.385C152.029 127.645 151.554 127.85 150.944 128C150.344 128.15 149.579 128.225 148.649 128.225C147.719 128.225 146.949 128.15 146.339 128C145.729 127.85 145.249 127.645 144.899 127.385C144.559 127.115 144.319 126.795 144.179 126.425C144.049 126.045 143.984 125.625 143.984 125.165V120.05C143.984 119.59 144.049 119.175 144.179 118.805C144.319 118.425 144.559 118.1 144.899 117.83C145.249 117.56 145.729 117.35 146.339 117.2C146.949 117.05 147.719 116.975 148.649 116.975C149.579 116.975 150.344 117.05 150.944 117.2C151.554 117.35 152.029 117.56 152.369 117.83C152.719 118.1 152.959 118.425 153.089 118.805C153.229 119.175 153.299 119.59 153.299 120.05V125.165ZM147.389 124.625C147.389 124.825 147.464 124.995 147.614 125.135C147.764 125.265 148.109 125.33 148.649 125.33C149.189 125.33 149.534 125.265 149.684 125.135C149.834 124.995 149.909 124.825 149.909 124.625V120.59C149.909 120.4 149.834 120.24 149.684 120.11C149.534 119.97 149.189 119.9 148.649 119.9C148.109 119.9 147.764 119.97 147.614 120.11C147.464 120.24 147.389 120.4 147.389 120.59V124.625ZM158.073 128H155.748C155.558 128 155.418 127.96 155.328 127.88C155.248 127.79 155.208 127.65 155.208 127.46V117.74C155.208 117.55 155.248 117.415 155.328 117.335C155.418 117.245 155.558 117.2 155.748 117.2H162.438C162.628 117.2 162.763 117.245 162.843 117.335C162.933 117.415 162.978 117.55 162.978 117.74V119.525C162.978 119.715 162.933 119.855 162.843 119.945C162.763 120.025 162.628 120.065 162.438 120.065H158.613V121.625H161.223C161.413 121.625 161.548 121.67 161.628 121.76C161.718 121.84 161.763 121.975 161.763 122.165V123.965C161.763 124.155 161.718 124.295 161.628 124.385C161.548 124.465 161.413 124.505 161.223 124.505H158.613V127.46C158.613 127.65 158.568 127.79 158.478 127.88C158.398 127.96 158.263 128 158.073 128ZM172.657 128H170.227C170.037 128 169.897 127.96 169.807 127.88C169.727 127.79 169.687 127.65 169.687 127.46V120.095H167.482C167.292 120.095 167.152 120.055 167.062 119.975C166.982 119.885 166.942 119.745 166.942 119.555V117.74C166.942 117.55 166.982 117.415 167.062 117.335C167.152 117.245 167.292 117.2 167.482 117.2H175.402C175.592 117.2 175.727 117.245 175.807 117.335C175.897 117.415 175.942 117.55 175.942 117.74V119.555C175.942 119.745 175.897 119.885 175.807 119.975C175.727 120.055 175.592 120.095 175.402 120.095H173.197V127.46C173.197 127.65 173.152 127.79 173.062 127.88C172.982 127.96 172.847 128 172.657 128ZM186.477 125.165C186.477 125.625 186.407 126.045 186.267 126.425C186.137 126.795 185.897 127.115 185.547 127.385C185.207 127.645 184.732 127.85 184.122 128C183.522 128.15 182.757 128.225 181.827 128.225C180.897 128.225 180.127 128.15 179.517 128C178.907 127.85 178.427 127.645 178.077 127.385C177.737 127.115 177.497 126.795 177.357 126.425C177.227 126.045 177.162 125.625 177.162 125.165V120.05C177.162 119.59 177.227 119.175 177.357 118.805C177.497 118.425 177.737 118.1 178.077 117.83C178.427 117.56 178.907 117.35 179.517 117.2C180.127 117.05 180.897 116.975 181.827 116.975C182.757 116.975 183.522 117.05 184.122 117.2C184.732 117.35 185.207 117.56 185.547 117.83C185.897 118.1 186.137 118.425 186.267 118.805C186.407 119.175 186.477 119.59 186.477 120.05V125.165ZM180.567 124.625C180.567 124.825 180.642 124.995 180.792 125.135C180.942 125.265 181.287 125.33 181.827 125.33C182.367 125.33 182.712 125.265 182.862 125.135C183.012 124.995 183.087 124.825 183.087 124.625V120.59C183.087 120.4 183.012 120.24 182.862 120.11C182.712 119.97 182.367 119.9 181.827 119.9C181.287 119.9 180.942 119.97 180.792 120.11C180.642 120.24 180.567 120.4 180.567 120.59V124.625ZM191.252 128H188.927C188.737 128 188.597 127.96 188.507 127.88C188.427 127.79 188.387 127.65 188.387 127.46V117.74C188.387 117.55 188.427 117.415 188.507 117.335C188.597 117.245 188.737 117.2 188.927 117.2H191.252C191.442 117.2 191.577 117.245 191.657 117.335C191.747 117.415 191.792 117.55 191.792 117.74V121.19H192.392L193.937 117.695C194.007 117.515 194.102 117.39 194.222 117.32C194.342 117.24 194.497 117.2 194.687 117.2H196.997C197.167 117.2 197.282 117.245 197.342 117.335C197.402 117.415 197.397 117.535 197.327 117.695L195.797 121.19C196.357 121.22 196.802 121.42 197.132 121.79C197.472 122.15 197.642 122.63 197.642 123.23V127.46C197.642 127.65 197.597 127.79 197.507 127.88C197.427 127.96 197.292 128 197.102 128H194.792C194.602 128 194.462 127.96 194.372 127.88C194.292 127.79 194.252 127.65 194.252 127.46V124.535C194.252 124.375 194.212 124.25 194.132 124.16C194.052 124.07 193.932 124.025 193.772 124.025H191.792V127.46C191.792 127.65 191.747 127.79 191.657 127.88C191.577 127.96 191.442 128 191.252 128ZM204.76 128H202.33C202.14 128 202 127.96 201.91 127.88C201.83 127.79 201.79 127.65 201.79 127.46V125.54L199.495 122.465C199.265 122.155 199.11 121.885 199.03 121.655C198.96 121.425 198.925 121.08 198.925 120.62V117.74C198.925 117.55 198.965 117.415 199.045 117.335C199.135 117.245 199.275 117.2 199.465 117.2H201.775C201.965 117.2 202.1 117.245 202.18 117.335C202.27 117.415 202.315 117.55 202.315 117.74V120.2C202.315 120.3 202.32 120.405 202.33 120.515C202.34 120.625 202.38 120.73 202.45 120.83L203.14 121.91C203.19 122 203.24 122.065 203.29 122.105C203.35 122.145 203.42 122.165 203.5 122.165H203.65C203.73 122.165 203.795 122.145 203.845 122.105C203.905 122.065 203.96 122 204.01 121.91L204.7 120.83C204.77 120.73 204.81 120.625 204.82 120.515C204.83 120.405 204.835 120.3 204.835 120.2V117.74C204.835 117.55 204.875 117.415 204.955 117.335C205.045 117.245 205.185 117.2 205.375 117.2H207.61C207.8 117.2 207.935 117.245 208.015 117.335C208.105 117.415 208.15 117.55 208.15 117.74V120.62C208.15 121.08 208.11 121.425 208.03 121.655C207.95 121.885 207.8 122.155 207.58 122.465L205.3 125.555V127.46C205.3 127.65 205.255 127.79 205.165 127.88C205.085 127.96 204.95 128 204.76 128ZM219.012 125.165C219.012 125.625 218.942 126.045 218.802 126.425C218.672 126.795 218.432 127.115 218.082 127.385C217.742 127.645 217.267 127.85 216.657 128C216.057 128.15 215.292 128.225 214.362 128.225C213.432 128.225 212.662 128.15 212.052 128C211.442 127.85 210.962 127.645 210.612 127.385C210.272 127.115 210.032 126.795 209.892 126.425C209.762 126.045 209.697 125.625 209.697 125.165V120.05C209.697 119.59 209.762 119.175 209.892 118.805C210.032 118.425 210.272 118.1 210.612 117.83C210.962 117.56 211.442 117.35 212.052 117.2C212.662 117.05 213.432 116.975 214.362 116.975C215.292 116.975 216.057 117.05 216.657 117.2C217.267 117.35 217.742 117.56 218.082 117.83C218.432 118.1 218.672 118.425 218.802 118.805C218.942 119.175 219.012 119.59 219.012 120.05V125.165ZM213.102 124.625C213.102 124.825 213.177 124.995 213.327 125.135C213.477 125.265 213.822 125.33 214.362 125.33C214.902 125.33 215.247 125.265 215.397 125.135C215.547 124.995 215.622 124.825 215.622 124.625V120.59C215.622 120.4 215.547 120.24 215.397 120.11C215.247 119.97 214.902 119.9 214.362 119.9C213.822 119.9 213.477 119.97 213.327 120.11C213.177 120.24 213.102 120.4 213.102 120.59V124.625Z" fill="white"/>
<path d="M329.123 112H324.963C324.76 112 324.59 111.963 324.451 111.888C324.323 111.813 324.222 111.675 324.147 111.472L322.579 107.552C322.483 107.317 322.403 107.115 322.339 106.944C322.275 106.763 322.222 106.592 322.179 106.432C322.136 106.272 322.104 106.107 322.083 105.936C322.072 105.755 322.067 105.536 322.067 105.28V101.056C322.067 100.853 322.11 100.709 322.195 100.624C322.291 100.528 322.44 100.48 322.643 100.48H325.187C325.39 100.48 325.544 100.528 325.651 100.624C325.758 100.709 325.811 100.853 325.811 101.056V105.472C325.811 105.579 325.822 105.685 325.843 105.792C325.864 105.899 325.896 106.011 325.939 106.128L326.691 108.368C326.723 108.475 326.76 108.549 326.803 108.592C326.846 108.624 326.91 108.64 326.995 108.64H327.171C327.256 108.64 327.32 108.624 327.363 108.592C327.406 108.549 327.443 108.475 327.475 108.368L328.227 106.112C328.27 105.995 328.302 105.883 328.323 105.776C328.344 105.669 328.355 105.563 328.355 105.456V101.056C328.355 100.853 328.398 100.709 328.483 100.624C328.579 100.528 328.728 100.48 328.931 100.48H331.443C331.646 100.48 331.79 100.528 331.875 100.624C331.971 100.709 332.019 100.853 332.019 101.056V105.28C332.019 105.536 332.008 105.755 331.987 105.936C331.976 106.107 331.95 106.272 331.907 106.432C331.864 106.592 331.811 106.763 331.747 106.944C331.683 107.115 331.603 107.317 331.507 107.552L329.939 111.472C329.864 111.675 329.758 111.813 329.619 111.888C329.491 111.963 329.326 112 329.123 112ZM334.251 108.976H338.267C338.523 108.976 338.688 108.928 338.763 108.832C338.837 108.736 338.875 108.624 338.875 108.496V108.064C338.875 107.936 338.837 107.829 338.763 107.744C338.688 107.648 338.523 107.6 338.267 107.6H335.547C335.344 107.6 335.195 107.557 335.099 107.472C335.013 107.376 334.971 107.227 334.971 107.024V105.312C334.971 105.109 335.013 104.965 335.099 104.88C335.195 104.784 335.344 104.736 335.547 104.736H337.227C337.483 104.736 337.648 104.688 337.723 104.592C337.797 104.496 337.835 104.384 337.835 104.256V104.016C337.835 103.888 337.797 103.776 337.723 103.68C337.648 103.584 337.483 103.536 337.227 103.536H334.251C334.048 103.536 333.899 103.493 333.803 103.408C333.717 103.312 333.675 103.163 333.675 102.96V101.056C333.675 100.853 333.717 100.709 333.803 100.624C333.899 100.528 334.048 100.48 334.251 100.48H338.715C339.6 100.48 340.256 100.688 340.683 101.104C341.12 101.509 341.339 102.064 341.339 102.768V103.696C341.339 104.101 341.269 104.453 341.131 104.752C340.992 105.051 340.747 105.275 340.395 105.424C341.152 105.509 341.675 105.744 341.963 106.128C342.261 106.501 342.411 107.04 342.411 107.744V109.344C342.411 110.165 342.149 110.816 341.627 111.296C341.104 111.765 340.331 112 339.307 112H334.251C334.048 112 333.899 111.957 333.803 111.872C333.717 111.776 333.675 111.627 333.675 111.424V109.552C333.675 109.349 333.717 109.205 333.803 109.12C333.899 109.024 334.048 108.976 334.251 108.976ZM348.806 112.24C347.825 112.24 347.019 112.16 346.39 112C345.771 111.851 345.286 111.637 344.934 111.36C344.582 111.072 344.337 110.731 344.198 110.336C344.07 109.941 344.006 109.499 344.006 109.008V103.76C344.006 102.789 344.283 102 344.838 101.392C345.403 100.784 346.438 100.48 347.942 100.48H351.622C351.825 100.48 351.969 100.528 352.054 100.624C352.15 100.709 352.198 100.853 352.198 101.056V102.944C352.198 103.147 352.15 103.296 352.054 103.392C351.969 103.477 351.825 103.52 351.622 103.52H348.63C348.235 103.52 347.969 103.584 347.83 103.712C347.691 103.829 347.622 104.085 347.622 104.48V104.832C347.878 104.757 348.171 104.699 348.502 104.656C348.843 104.613 349.227 104.592 349.654 104.592C351.094 104.592 352.081 104.837 352.614 105.328C353.147 105.808 353.414 106.523 353.414 107.472V109.008C353.414 109.499 353.345 109.941 353.206 110.336C353.078 110.731 352.838 111.072 352.486 111.36C352.145 111.637 351.675 111.851 351.078 112C350.481 112.16 349.723 112.24 348.806 112.24ZM347.622 107.808V108.752C347.622 108.923 347.686 109.067 347.814 109.184C347.942 109.291 348.235 109.344 348.694 109.344C349.174 109.344 349.478 109.291 349.606 109.184C349.734 109.067 349.798 108.923 349.798 108.752V107.808C349.798 107.648 349.734 107.515 349.606 107.408C349.478 107.291 349.174 107.232 348.694 107.232C348.235 107.232 347.942 107.291 347.814 107.408C347.686 107.515 347.622 107.648 347.622 107.808ZM364.876 108.976C364.876 109.467 364.807 109.915 364.668 110.32C364.529 110.715 364.279 111.056 363.916 111.344C363.553 111.621 363.052 111.84 362.412 112C361.783 112.16 360.977 112.24 359.996 112.24C359.015 112.24 358.204 112.16 357.564 112C356.935 111.84 356.439 111.621 356.076 111.344C355.713 111.056 355.457 110.715 355.308 110.32C355.169 109.915 355.1 109.467 355.1 108.976V103.52C355.1 103.029 355.169 102.587 355.308 102.192C355.457 101.787 355.713 101.44 356.076 101.152C356.439 100.864 356.935 100.64 357.564 100.48C358.204 100.32 359.015 100.24 359.996 100.24C360.977 100.24 361.783 100.32 362.412 100.48C363.052 100.64 363.553 100.864 363.916 101.152C364.279 101.44 364.529 101.787 364.668 102.192C364.807 102.587 364.876 103.029 364.876 103.52V108.976ZM358.716 108.4C358.716 108.613 358.791 108.795 358.94 108.944C359.1 109.083 359.452 109.152 359.996 109.152C360.54 109.152 360.887 109.083 361.036 108.944C361.196 108.795 361.276 108.613 361.276 108.4V104.096C361.276 103.893 361.196 103.723 361.036 103.584C360.887 103.435 360.54 103.36 359.996 103.36C359.452 103.36 359.1 103.435 358.94 103.584C358.791 103.723 358.716 103.893 358.716 104.096V108.4Z" fill="white"/>
<path d="M477.38 106H474.788C474.585 106 474.436 105.957 474.34 105.872C474.255 105.776 474.212 105.627 474.212 105.424V97.568H471.86C471.657 97.568 471.508 97.5253 471.412 97.44C471.327 97.344 471.284 97.1947 471.284 96.992V95.056C471.284 94.8533 471.327 94.7093 471.412 94.624C471.508 94.528 471.657 94.48 471.86 94.48H480.308C480.511 94.48 480.655 94.528 480.74 94.624C480.836 94.7093 480.884 94.8533 480.884 95.056V96.992C480.884 97.1947 480.836 97.344 480.74 97.44C480.655 97.5253 480.511 97.568 480.308 97.568H477.956V105.424C477.956 105.627 477.908 105.776 477.812 105.872C477.727 105.957 477.583 106 477.38 106ZM482.76 106C482.557 106 482.408 105.957 482.312 105.872C482.227 105.776 482.184 105.627 482.184 105.424V103.52C482.184 103.317 482.227 103.173 482.312 103.088C482.408 102.992 482.557 102.944 482.76 102.944H484.344V97.568H482.76C482.557 97.568 482.408 97.5253 482.312 97.44C482.227 97.344 482.184 97.1947 482.184 96.992V95.056C482.184 94.8533 482.227 94.7093 482.312 94.624C482.408 94.528 482.557 94.48 482.76 94.48H489.576C489.779 94.48 489.923 94.528 490.008 94.624C490.104 94.7093 490.152 94.8533 490.152 95.056V96.992C490.152 97.1947 490.104 97.344 490.008 97.44C489.923 97.5253 489.779 97.568 489.576 97.568H488.024V102.944H489.576C489.779 102.944 489.923 102.992 490.008 103.088C490.104 103.173 490.152 103.317 490.152 103.52V105.424C490.152 105.627 490.104 105.776 490.008 105.872C489.923 105.957 489.779 106 489.576 106H482.76ZM497.471 106H492.415C492.213 106 492.063 105.957 491.967 105.872C491.882 105.776 491.839 105.627 491.839 105.424V103.552C491.839 103.349 491.882 103.205 491.967 103.12C492.063 103.024 492.213 102.976 492.415 102.976H496.719C496.858 102.976 496.959 102.933 497.023 102.848C497.098 102.752 497.135 102.64 497.135 102.512C497.135 102.331 497.098 102.197 497.023 102.112C496.959 102.027 496.858 101.979 496.719 101.968L494.319 101.632C493.573 101.525 492.97 101.28 492.511 100.896C492.063 100.512 491.839 99.872 491.839 98.976V97.296C491.839 96.3893 492.133 95.696 492.719 95.216C493.306 94.7253 494.117 94.48 495.151 94.48H499.631C499.834 94.48 499.978 94.528 500.063 94.624C500.159 94.7093 500.207 94.8533 500.207 95.056V96.96C500.207 97.1627 500.159 97.312 500.063 97.408C499.978 97.4933 499.834 97.536 499.631 97.536H495.903C495.765 97.536 495.658 97.584 495.583 97.68C495.509 97.7653 495.471 97.8773 495.471 98.016C495.471 98.1547 495.509 98.272 495.583 98.368C495.658 98.464 495.765 98.5173 495.903 98.528L498.287 98.848C499.034 98.9547 499.637 99.2 500.095 99.584C500.554 99.968 500.783 100.608 500.783 101.504V103.184C500.783 104.091 500.485 104.789 499.887 105.28C499.301 105.76 498.495 106 497.471 106ZM507.8 106H502.744C502.541 106 502.392 105.957 502.296 105.872C502.21 105.776 502.168 105.627 502.168 105.424V103.552C502.168 103.349 502.21 103.205 502.296 103.12C502.392 103.024 502.541 102.976 502.744 102.976H507.048C507.186 102.976 507.288 102.933 507.352 102.848C507.426 102.752 507.464 102.64 507.464 102.512C507.464 102.331 507.426 102.197 507.352 102.112C507.288 102.027 507.186 101.979 507.048 101.968L504.648 101.632C503.901 101.525 503.298 101.28 502.84 100.896C502.392 100.512 502.168 99.872 502.168 98.976V97.296C502.168 96.3893 502.461 95.696 503.048 95.216C503.634 94.7253 504.445 94.48 505.48 94.48H509.96C510.162 94.48 510.306 94.528 510.392 94.624C510.488 94.7093 510.536 94.8533 510.536 95.056V96.96C510.536 97.1627 510.488 97.312 510.392 97.408C510.306 97.4933 510.162 97.536 509.96 97.536H506.232C506.093 97.536 505.986 97.584 505.912 97.68C505.837 97.7653 505.8 97.8773 505.8 98.016C505.8 98.1547 505.837 98.272 505.912 98.368C505.986 98.464 506.093 98.5173 506.232 98.528L508.616 98.848C509.362 98.9547 509.965 99.2 510.424 99.584C510.882 99.968 511.112 100.608 511.112 101.504V103.184C511.112 104.091 510.813 104.789 510.216 105.28C509.629 105.76 508.824 106 507.8 106ZM522.67 102.976C522.67 103.467 522.595 103.915 522.446 104.32C522.307 104.715 522.051 105.056 521.678 105.344C521.315 105.621 520.814 105.84 520.174 106C519.534 106.16 518.718 106.24 517.726 106.24C516.734 106.24 515.918 106.16 515.278 106C514.638 105.84 514.131 105.621 513.758 105.344C513.395 105.056 513.139 104.715 512.99 104.32C512.851 103.915 512.782 103.467 512.782 102.976V95.056C512.782 94.8533 512.824 94.7093 512.91 94.624C513.006 94.528 513.155 94.48 513.358 94.48H515.87C516.072 94.48 516.216 94.528 516.302 94.624C516.398 94.7093 516.446 94.8533 516.446 95.056V102.352C516.446 102.565 516.526 102.747 516.686 102.896C516.846 103.035 517.203 103.104 517.758 103.104C518.323 103.104 518.686 103.035 518.846 102.896C519.006 102.747 519.086 102.565 519.086 102.352V95.056C519.086 94.8533 519.128 94.7093 519.214 94.624C519.31 94.528 519.459 94.48 519.662 94.48H522.094C522.296 94.48 522.44 94.528 522.526 94.624C522.622 94.7093 522.67 94.8533 522.67 95.056V102.976ZM532.799 106H525.375C525.173 106 525.023 105.957 524.927 105.872C524.842 105.776 524.799 105.627 524.799 105.424V95.056C524.799 94.8533 524.842 94.7093 524.927 94.624C525.023 94.528 525.173 94.48 525.375 94.48H532.799C533.002 94.48 533.146 94.528 533.231 94.624C533.327 94.7093 533.375 94.8533 533.375 95.056V96.928C533.375 97.1307 533.327 97.28 533.231 97.376C533.146 97.4613 533.002 97.504 532.799 97.504H528.383V98.736H531.503C531.706 98.736 531.85 98.784 531.935 98.88C532.031 98.9653 532.079 99.1093 532.079 99.312V101.024C532.079 101.227 532.031 101.376 531.935 101.472C531.85 101.557 531.706 101.6 531.503 101.6H528.383V102.976H532.799C533.002 102.976 533.146 103.024 533.231 103.12C533.327 103.205 533.375 103.349 533.375 103.552V105.424C533.375 105.627 533.327 105.776 533.231 105.872C533.146 105.957 533.002 106 532.799 106ZM489.918 125H481.774C481.571 125 481.422 124.957 481.326 124.872C481.24 124.776 481.198 124.627 481.198 124.424V114.056C481.198 113.853 481.24 113.709 481.326 113.624C481.422 113.528 481.571 113.48 481.774 113.48H484.254C484.456 113.48 484.6 113.528 484.686 113.624C484.782 113.709 484.83 113.853 484.83 114.056V121.976H487.022V119.384C487.022 119.181 487.064 119.037 487.15 118.952C487.246 118.856 487.395 118.808 487.598 118.808H489.918C490.12 118.808 490.264 118.856 490.35 118.952C490.446 119.037 490.494 119.181 490.494 119.384V124.424C490.494 124.627 490.446 124.776 490.35 124.872C490.264 124.957 490.12 125 489.918 125ZM496.499 116.84L495.747 119.272H498.259L497.507 116.84C497.464 116.744 497.416 116.675 497.363 116.632C497.32 116.589 497.267 116.568 497.203 116.568H496.803C496.739 116.568 496.68 116.589 496.627 116.632C496.584 116.675 496.541 116.744 496.499 116.84ZM495.587 124.424C495.587 124.627 495.539 124.776 495.443 124.872C495.357 124.957 495.213 125 495.011 125H492.659C492.456 125 492.307 124.957 492.211 124.872C492.125 124.776 492.083 124.627 492.083 124.424V120.2C492.083 119.88 492.131 119.512 492.227 119.096C492.333 118.68 492.493 118.195 492.707 117.64L494.099 114.008C494.163 113.827 494.259 113.693 494.387 113.608C494.525 113.523 494.701 113.48 494.915 113.48H499.219C499.421 113.48 499.587 113.523 499.715 113.608C499.853 113.693 499.955 113.827 500.019 114.008L501.411 117.64C501.624 118.195 501.779 118.68 501.875 119.096C501.981 119.512 502.035 119.88 502.035 120.2V124.424C502.035 124.627 501.987 124.776 501.891 124.872C501.805 124.957 501.661 125 501.459 125H499.043C498.829 125 498.669 124.957 498.563 124.872C498.467 124.776 498.419 124.627 498.419 124.424V122.184H495.587V124.424ZM510.73 125H504.586C504.384 125 504.234 124.957 504.138 124.872C504.053 124.776 504.01 124.627 504.01 124.424V114.056C504.01 113.853 504.053 113.709 504.138 113.624C504.234 113.528 504.384 113.48 504.586 113.48H509.69C510.736 113.48 511.509 113.683 512.01 114.088C512.512 114.483 512.762 115.096 512.762 115.928V116.696C512.762 117.144 512.682 117.512 512.522 117.8C512.373 118.077 512.138 118.285 511.818 118.424C512.501 118.488 513.008 118.723 513.338 119.128C513.669 119.533 513.834 120.125 513.834 120.904V122.376C513.834 123.272 513.578 123.933 513.066 124.36C512.565 124.787 511.786 125 510.73 125ZM507.61 116.2V117.928H508.97C509.173 117.928 509.322 117.875 509.418 117.768C509.525 117.661 509.578 117.501 509.578 117.288V116.84C509.578 116.627 509.525 116.467 509.418 116.36C509.322 116.253 509.173 116.2 508.97 116.2H507.61ZM507.61 120.392V122.28H509.69C509.893 122.28 510.042 122.227 510.138 122.12C510.245 122.013 510.298 121.853 510.298 121.64V121.016C510.298 120.803 510.245 120.648 510.138 120.552C510.042 120.445 509.893 120.392 509.69 120.392H507.61ZM520.948 125H515.892C515.689 125 515.54 124.957 515.444 124.872C515.359 124.776 515.316 124.627 515.316 124.424V122.552C515.316 122.349 515.359 122.205 515.444 122.12C515.54 122.024 515.689 121.976 515.892 121.976H520.196C520.335 121.976 520.436 121.933 520.5 121.848C520.575 121.752 520.612 121.64 520.612 121.512C520.612 121.331 520.575 121.197 520.5 121.112C520.436 121.027 520.335 120.979 520.196 120.968L517.796 120.632C517.049 120.525 516.447 120.28 515.988 119.896C515.54 119.512 515.316 118.872 515.316 117.976V116.296C515.316 115.389 515.609 114.696 516.196 114.216C516.783 113.725 517.593 113.48 518.628 113.48H523.108C523.311 113.48 523.455 113.528 523.54 113.624C523.636 113.709 523.684 113.853 523.684 114.056V115.96C523.684 116.163 523.636 116.312 523.54 116.408C523.455 116.493 523.311 116.536 523.108 116.536H519.38C519.241 116.536 519.135 116.584 519.06 116.68C518.985 116.765 518.948 116.877 518.948 117.016C518.948 117.155 518.985 117.272 519.06 117.368C519.135 117.464 519.241 117.517 519.38 117.528L521.764 117.848C522.511 117.955 523.113 118.2 523.572 118.584C524.031 118.968 524.26 119.608 524.26 120.504V122.184C524.26 123.091 523.961 123.789 523.364 124.28C522.777 124.76 521.972 125 520.948 125Z" fill="white"/>
<path d="M801.092 112H796.052C794.718 112 793.726 111.733 793.076 111.2C792.436 110.667 792.116 109.845 792.116 108.736V103.744C792.116 102.635 792.436 101.813 793.076 101.28C793.726 100.747 794.718 100.48 796.052 100.48H800.052C800.254 100.48 800.398 100.528 800.484 100.624C800.58 100.709 800.628 100.853 800.628 101.056V102.992C800.628 103.195 800.58 103.344 800.484 103.44C800.398 103.525 800.254 103.568 800.052 103.568H796.724C796.393 103.568 796.148 103.637 795.988 103.776C795.828 103.904 795.748 104.101 795.748 104.368V108.192C795.748 108.459 795.806 108.656 795.924 108.784C796.052 108.912 796.238 108.976 796.484 108.976H798.036V106.48C798.036 106.277 798.078 106.133 798.164 106.048C798.26 105.952 798.409 105.904 798.612 105.904H801.092C801.294 105.904 801.438 105.952 801.524 106.048C801.62 106.133 801.668 106.277 801.668 106.48V111.424C801.668 111.627 801.62 111.776 801.524 111.872C801.438 111.957 801.294 112 801.092 112ZM807.796 103.84L807.044 106.272H809.556L808.804 103.84C808.761 103.744 808.713 103.675 808.66 103.632C808.617 103.589 808.564 103.568 808.5 103.568H808.1C808.036 103.568 807.977 103.589 807.924 103.632C807.881 103.675 807.838 103.744 807.796 103.84ZM806.884 111.424C806.884 111.627 806.836 111.776 806.74 111.872C806.654 111.957 806.51 112 806.308 112H803.956C803.753 112 803.604 111.957 803.508 111.872C803.422 111.776 803.38 111.627 803.38 111.424V107.2C803.38 106.88 803.428 106.512 803.524 106.096C803.63 105.68 803.79 105.195 804.004 104.64L805.396 101.008C805.46 100.827 805.556 100.693 805.684 100.608C805.822 100.523 805.998 100.48 806.212 100.48H810.516C810.718 100.48 810.884 100.523 811.012 100.608C811.15 100.693 811.252 100.827 811.316 101.008L812.708 104.64C812.921 105.195 813.076 105.68 813.172 106.096C813.278 106.512 813.332 106.88 813.332 107.2V111.424C813.332 111.627 813.284 111.776 813.188 111.872C813.102 111.957 812.958 112 812.756 112H810.34C810.126 112 809.966 111.957 809.86 111.872C809.764 111.776 809.716 111.627 809.716 111.424V109.184H806.884V111.424ZM824.027 112H815.883C815.68 112 815.531 111.957 815.435 111.872C815.35 111.776 815.307 111.627 815.307 111.424V101.056C815.307 100.853 815.35 100.709 815.435 100.624C815.531 100.528 815.68 100.48 815.883 100.48H818.363C818.566 100.48 818.71 100.528 818.795 100.624C818.891 100.709 818.939 100.853 818.939 101.056V108.976H821.131V106.384C821.131 106.181 821.174 106.037 821.259 105.952C821.355 105.856 821.504 105.808 821.707 105.808H824.027C824.23 105.808 824.374 105.856 824.459 105.952C824.555 106.037 824.603 106.181 824.603 106.384V111.424C824.603 111.627 824.555 111.776 824.459 111.872C824.374 111.957 824.23 112 824.027 112ZM831.475 112H828.883C828.681 112 828.531 111.957 828.435 111.872C828.35 111.776 828.307 111.627 828.307 111.424V109.376L825.859 106.096C825.614 105.765 825.449 105.477 825.363 105.232C825.289 104.987 825.251 104.619 825.251 104.128V101.056C825.251 100.853 825.294 100.709 825.379 100.624C825.475 100.528 825.625 100.48 825.827 100.48H828.291C828.494 100.48 828.638 100.528 828.723 100.624C828.819 100.709 828.867 100.853 828.867 101.056V103.68C828.867 103.787 828.873 103.899 828.883 104.016C828.894 104.133 828.937 104.245 829.011 104.352L829.747 105.504C829.801 105.6 829.854 105.669 829.907 105.712C829.971 105.755 830.046 105.776 830.131 105.776H830.291C830.377 105.776 830.446 105.755 830.499 105.712C830.563 105.669 830.622 105.6 830.675 105.504L831.411 104.352C831.486 104.245 831.529 104.133 831.539 104.016C831.55 103.899 831.555 103.787 831.555 103.68V101.056C831.555 100.853 831.598 100.709 831.683 100.624C831.779 100.528 831.929 100.48 832.131 100.48H834.515C834.718 100.48 834.862 100.528 834.947 100.624C835.043 100.709 835.091 100.853 835.091 101.056V104.128C835.091 104.619 835.049 104.987 834.963 105.232C834.878 105.477 834.718 105.765 834.483 106.096L832.051 109.392V111.424C832.051 111.627 832.003 111.776 831.907 111.872C831.822 111.957 831.678 112 831.475 112Z" fill="white"/>
<path d="M931.855 370H929.375C929.173 370 929.023 369.957 928.927 369.872C928.842 369.776 928.799 369.627 928.799 369.424V359.056C928.799 358.853 928.842 358.709 928.927 358.624C929.023 358.528 929.173 358.48 929.375 358.48H931.855C932.058 358.48 932.202 358.528 932.287 358.624C932.383 358.709 932.431 358.853 932.431 359.056V362.528H935.103V359.056C935.103 358.853 935.146 358.709 935.231 358.624C935.327 358.528 935.477 358.48 935.679 358.48H938.159C938.362 358.48 938.506 358.528 938.591 358.624C938.687 358.709 938.735 358.853 938.735 359.056V369.424C938.735 369.627 938.687 369.776 938.591 369.872C938.506 369.957 938.362 370 938.159 370H935.679C935.477 370 935.327 369.957 935.231 369.872C935.146 369.776 935.103 369.627 935.103 369.424V365.872H932.431V369.424C932.431 369.627 932.383 369.776 932.287 369.872C932.202 369.957 932.058 370 931.855 370ZM945.116 361.84L944.364 364.272H946.876L946.124 361.84C946.081 361.744 946.033 361.675 945.98 361.632C945.937 361.589 945.884 361.568 945.82 361.568H945.42C945.356 361.568 945.297 361.589 945.244 361.632C945.201 361.675 945.159 361.744 945.116 361.84ZM944.204 369.424C944.204 369.627 944.156 369.776 944.06 369.872C943.975 369.957 943.831 370 943.628 370H941.276C941.073 370 940.924 369.957 940.828 369.872C940.743 369.776 940.7 369.627 940.7 369.424V365.2C940.7 364.88 940.748 364.512 940.844 364.096C940.951 363.68 941.111 363.195 941.324 362.64L942.716 359.008C942.78 358.827 942.876 358.693 943.004 358.608C943.143 358.523 943.319 358.48 943.532 358.48H947.836C948.039 358.48 948.204 358.523 948.332 358.608C948.471 358.693 948.572 358.827 948.636 359.008L950.028 362.64C950.241 363.195 950.396 363.68 950.492 364.096C950.599 364.512 950.652 364.88 950.652 365.2V369.424C950.652 369.627 950.604 369.776 950.508 369.872C950.423 369.957 950.279 370 950.076 370H947.66C947.447 370 947.287 369.957 947.18 369.872C947.084 369.776 947.036 369.627 947.036 369.424V367.184H944.204V369.424ZM956.243 361.36V363.408H957.443C957.721 363.408 957.907 363.339 958.003 363.2C958.099 363.051 958.147 362.869 958.147 362.656V362.112C958.147 361.899 958.099 361.723 958.003 361.584C957.907 361.435 957.721 361.36 957.443 361.36H956.243ZM955.667 370H953.203C953.001 370 952.851 369.957 952.755 369.872C952.67 369.776 952.627 369.627 952.627 369.424V359.056C952.627 358.853 952.67 358.709 952.755 358.624C952.851 358.528 953.001 358.48 953.203 358.48H958.531C959.726 358.48 960.547 358.731 960.995 359.232C961.454 359.723 961.683 360.363 961.683 361.152V361.888C961.683 362.336 961.614 362.72 961.475 363.04C961.347 363.349 961.118 363.573 960.787 363.712C961.363 363.776 961.827 364.011 962.179 364.416C962.542 364.821 962.723 365.36 962.723 366.032V369.424C962.723 369.627 962.675 369.776 962.579 369.872C962.494 369.957 962.35 370 962.147 370H959.667C959.465 370 959.315 369.957 959.219 369.872C959.134 369.776 959.091 369.627 959.091 369.424V366.976C959.091 366.741 959.043 366.571 958.947 366.464C958.862 366.347 958.707 366.288 958.483 366.288H956.243V369.424C956.243 369.627 956.195 369.776 956.099 369.872C956.014 369.957 955.87 370 955.667 370ZM971.178 370H967.018C966.815 370 966.644 369.963 966.506 369.888C966.378 369.813 966.276 369.675 966.202 369.472L964.634 365.552C964.538 365.317 964.458 365.115 964.394 364.944C964.33 364.763 964.276 364.592 964.234 364.432C964.191 364.272 964.159 364.107 964.138 363.936C964.127 363.755 964.122 363.536 964.122 363.28V359.056C964.122 358.853 964.164 358.709 964.25 358.624C964.346 358.528 964.495 358.48 964.698 358.48H967.242C967.444 358.48 967.599 358.528 967.706 358.624C967.812 358.709 967.866 358.853 967.866 359.056V363.472C967.866 363.579 967.876 363.685 967.898 363.792C967.919 363.899 967.951 364.011 967.994 364.128L968.746 366.368C968.778 366.475 968.815 366.549 968.858 366.592C968.9 366.624 968.964 366.64 969.05 366.64H969.226C969.311 366.64 969.375 366.624 969.418 366.592C969.46 366.549 969.498 366.475 969.53 366.368L970.282 364.112C970.324 363.995 970.356 363.883 970.378 363.776C970.399 363.669 970.41 363.563 970.41 363.456V359.056C970.41 358.853 970.452 358.709 970.538 358.624C970.634 358.528 970.783 358.48 970.986 358.48H973.498C973.7 358.48 973.844 358.528 973.93 358.624C974.026 358.709 974.074 358.853 974.074 359.056V363.28C974.074 363.536 974.063 363.755 974.042 363.936C974.031 364.107 974.004 364.272 973.962 364.432C973.919 364.592 973.866 364.763 973.802 364.944C973.738 365.115 973.658 365.317 973.562 365.552L971.994 369.472C971.919 369.675 971.812 369.813 971.674 369.888C971.546 369.963 971.38 370 971.178 370ZM980.069 361.84L979.317 364.272H981.829L981.077 361.84C981.034 361.744 980.986 361.675 980.933 361.632C980.89 361.589 980.837 361.568 980.773 361.568H980.373C980.309 361.568 980.25 361.589 980.197 361.632C980.154 361.675 980.112 361.744 980.069 361.84ZM979.157 369.424C979.157 369.627 979.109 369.776 979.013 369.872C978.928 369.957 978.784 370 978.581 370H976.229C976.026 370 975.877 369.957 975.781 369.872C975.696 369.776 975.653 369.627 975.653 369.424V365.2C975.653 364.88 975.701 364.512 975.797 364.096C975.904 363.68 976.064 363.195 976.277 362.64L977.669 359.008C977.733 358.827 977.829 358.693 977.957 358.608C978.096 358.523 978.272 358.48 978.485 358.48H982.789C982.992 358.48 983.157 358.523 983.285 358.608C983.424 358.693 983.525 358.827 983.589 359.008L984.981 362.64C985.194 363.195 985.349 363.68 985.445 364.096C985.552 364.512 985.605 364.88 985.605 365.2V369.424C985.605 369.627 985.557 369.776 985.461 369.872C985.376 369.957 985.232 370 985.029 370H982.613C982.4 370 982.24 369.957 982.133 369.872C982.037 369.776 981.989 369.627 981.989 369.424V367.184H979.157V369.424ZM991.197 361.36V363.408H992.397C992.674 363.408 992.861 363.339 992.957 363.2C993.053 363.051 993.101 362.869 993.101 362.656V362.112C993.101 361.899 993.053 361.723 992.957 361.584C992.861 361.435 992.674 361.36 992.397 361.36H991.197ZM990.621 370H988.157C987.954 370 987.805 369.957 987.709 369.872C987.623 369.776 987.581 369.627 987.581 369.424V359.056C987.581 358.853 987.623 358.709 987.709 358.624C987.805 358.528 987.954 358.48 988.157 358.48H993.485C994.679 358.48 995.501 358.731 995.949 359.232C996.407 359.723 996.637 360.363 996.637 361.152V361.888C996.637 362.336 996.567 362.72 996.429 363.04C996.301 363.349 996.071 363.573 995.741 363.712C996.317 363.776 996.781 364.011 997.133 364.416C997.495 364.821 997.677 365.36 997.677 366.032V369.424C997.677 369.627 997.629 369.776 997.533 369.872C997.447 369.957 997.303 370 997.101 370H994.621C994.418 370 994.269 369.957 994.173 369.872C994.087 369.776 994.045 369.627 994.045 369.424V366.976C994.045 366.741 993.997 366.571 993.901 366.464C993.815 366.347 993.661 366.288 993.437 366.288H991.197V369.424C991.197 369.627 991.149 369.776 991.053 369.872C990.967 369.957 990.823 370 990.621 370ZM1005.44 370H1000.05C999.845 370 999.695 369.957 999.599 369.872C999.514 369.776 999.471 369.627 999.471 369.424V359.056C999.471 358.853 999.514 358.709 999.599 358.624C999.695 358.528 999.845 358.48 1000.05 358.48H1005.44C1006.77 358.48 1007.76 358.747 1008.4 359.28C1009.05 359.813 1009.38 360.635 1009.38 361.744V366.736C1009.38 367.845 1009.05 368.667 1008.4 369.2C1007.76 369.733 1006.77 370 1005.44 370ZM1003.1 361.536V366.976H1005.01C1005.26 366.976 1005.45 366.912 1005.57 366.784C1005.7 366.656 1005.76 366.459 1005.76 366.192V362.304C1005.76 362.037 1005.7 361.845 1005.57 361.728C1005.45 361.6 1005.26 361.536 1005.01 361.536H1003.1Z" fill="white"/>
</svg>
